<mxfile host="app.diagrams.net" modified="2022-06-25T10:56:31.288Z" agent="5.0 (Macintosh; Intel Mac OS X 10_15_7) AppleWebKit/537.36 (KHTML, like Gecko) Chrome/102.0.0.0 Safari/537.36" etag="BTk0igntF44HKkFia-Nm" version="20.0.3" type="github" pages="2">
  <diagram id="acX0Da72Zyq14iBxnWBp" name="Page-1">
    <mxGraphModel dx="1237" dy="921" grid="1" gridSize="10" guides="1" tooltips="1" connect="1" arrows="1" fold="1" page="1" pageScale="1" pageWidth="291" pageHeight="413" math="0" shadow="0">
      <root>
        <mxCell id="0" />
        <mxCell id="1" parent="0" />
        <mxCell id="NMNSzK-s-q_iO5RZ9DI--1" value="" style="edgeStyle=orthogonalEdgeStyle;rounded=0;orthogonalLoop=1;jettySize=auto;html=1;fontSize=14;entryX=0;entryY=0.5;entryDx=0;entryDy=0;strokeWidth=3;" parent="1" target="NMNSzK-s-q_iO5RZ9DI--10" edge="1">
          <mxGeometry relative="1" as="geometry">
            <Array as="points">
              <mxPoint x="80" y="50" />
              <mxPoint x="80" y="130" />
            </Array>
            <mxPoint x="40" y="50" as="sourcePoint" />
            <mxPoint x="130" y="100" as="targetPoint" />
          </mxGeometry>
        </mxCell>
        <mxCell id="NMNSzK-s-q_iO5RZ9DI--2" value="" style="edgeStyle=orthogonalEdgeStyle;rounded=0;orthogonalLoop=1;jettySize=auto;html=1;fontSize=14;entryX=0;entryY=0.5;entryDx=0;entryDy=0;exitX=1;exitY=0.5;exitDx=0;exitDy=0;strokeWidth=3;" parent="1" target="NMNSzK-s-q_iO5RZ9DI--7" edge="1">
          <mxGeometry relative="1" as="geometry">
            <mxPoint x="40" y="50" as="sourcePoint" />
            <mxPoint x="130" y="-50" as="targetPoint" />
            <Array as="points">
              <mxPoint x="80" y="50" />
              <mxPoint x="80" y="-99" />
            </Array>
          </mxGeometry>
        </mxCell>
        <mxCell id="NMNSzK-s-q_iO5RZ9DI--3" value="" style="edgeStyle=orthogonalEdgeStyle;rounded=0;orthogonalLoop=1;jettySize=auto;html=1;fontSize=14;entryX=0;entryY=0.5;entryDx=0;entryDy=0;exitX=1;exitY=0.5;exitDx=0;exitDy=0;strokeWidth=3;" parent="1" target="NMNSzK-s-q_iO5RZ9DI--14" edge="1">
          <mxGeometry relative="1" as="geometry">
            <mxPoint x="40" y="50" as="sourcePoint" />
            <mxPoint x="217.48000000000002" y="315" as="targetPoint" />
            <Array as="points">
              <mxPoint x="80" y="50" />
              <mxPoint x="80" y="286" />
            </Array>
          </mxGeometry>
        </mxCell>
        <mxCell id="NMNSzK-s-q_iO5RZ9DI--4" value="" style="edgeStyle=orthogonalEdgeStyle;rounded=0;orthogonalLoop=1;jettySize=auto;html=1;fontSize=14;entryX=0;entryY=0.5;entryDx=0;entryDy=0;exitX=1;exitY=0.5;exitDx=0;exitDy=0;strokeWidth=3;" parent="1" source="NMNSzK-s-q_iO5RZ9DI--5" target="NMNSzK-s-q_iO5RZ9DI--6" edge="1">
          <mxGeometry relative="1" as="geometry">
            <mxPoint x="40" y="50" as="sourcePoint" />
            <mxPoint x="320" y="-160" as="targetPoint" />
            <Array as="points">
              <mxPoint x="40" y="50" />
              <mxPoint x="80" y="50" />
              <mxPoint x="80" y="-160" />
            </Array>
          </mxGeometry>
        </mxCell>
        <mxCell id="NMNSzK-s-q_iO5RZ9DI--5" value="" style="shape=image;verticalLabelPosition=bottom;labelBackgroundColor=default;verticalAlign=top;aspect=fixed;imageAspect=0;image=https://cdn-images-1.medium.com/max/1200/1*r5KdIfHXaz7UQM4FmZ0D5A.png;imageBackground=none;imageBorder=none;" parent="1" vertex="1">
          <mxGeometry x="-120" y="-30" width="160" height="160" as="geometry" />
        </mxCell>
        <mxCell id="NMNSzK-s-q_iO5RZ9DI--6" value="" style="shape=image;verticalLabelPosition=bottom;labelBackgroundColor=default;verticalAlign=top;aspect=fixed;imageAspect=0;image=https://i.pcmag.com/imagery/articles/07Lgme4Q7ABF0YNKijmwfma-10..v1615827743.jpg;" parent="1" vertex="1">
          <mxGeometry x="460" y="-209.19" width="176.04" height="99.19" as="geometry" />
        </mxCell>
        <mxCell id="NMNSzK-s-q_iO5RZ9DI--7" value="" style="shape=image;verticalLabelPosition=bottom;labelBackgroundColor=default;verticalAlign=top;aspect=fixed;imageAspect=0;image=https://images.velog.io/images/amuse/post/4ca1bade-cef1-4a4e-bf04-95d8c6bb3111/mysql.png;" parent="1" vertex="1">
          <mxGeometry x="280" y="-139" width="152.72" height="79" as="geometry" />
        </mxCell>
        <mxCell id="NMNSzK-s-q_iO5RZ9DI--8" value="" style="shape=image;verticalLabelPosition=bottom;labelBackgroundColor=default;verticalAlign=top;aspect=fixed;imageAspect=0;image=https://images.velog.io/images/banjjoknim/post/82df7d69-1f8d-4325-8d45-29faf2995ceb/redis.png;" parent="1" vertex="1">
          <mxGeometry x="142.69" y="-50" width="106.62" height="90" as="geometry" />
        </mxCell>
        <mxCell id="NMNSzK-s-q_iO5RZ9DI--9" value="" style="edgeStyle=orthogonalEdgeStyle;rounded=0;orthogonalLoop=1;jettySize=auto;html=1;fontSize=14;entryX=0;entryY=0.5;entryDx=0;entryDy=0;strokeWidth=3;exitX=1;exitY=0.5;exitDx=0;exitDy=0;" parent="1" source="NMNSzK-s-q_iO5RZ9DI--5" target="NMNSzK-s-q_iO5RZ9DI--8" edge="1">
          <mxGeometry relative="1" as="geometry">
            <mxPoint x="60" y="80" as="sourcePoint" />
            <mxPoint x="470" y="-149.59500000000003" as="targetPoint" />
            <Array as="points">
              <mxPoint x="80" y="50" />
              <mxPoint x="80" y="-5" />
            </Array>
          </mxGeometry>
        </mxCell>
        <mxCell id="NMNSzK-s-q_iO5RZ9DI--10" value="" style="shape=image;verticalLabelPosition=bottom;labelBackgroundColor=default;verticalAlign=top;aspect=fixed;imageAspect=0;image=https://perfectacle.github.io/2017/08/02/Spring-boot-study-001day/thumb.png;" parent="1" vertex="1">
          <mxGeometry x="146" y="80" width="100" height="100" as="geometry" />
        </mxCell>
        <mxCell id="NMNSzK-s-q_iO5RZ9DI--11" value="" style="endArrow=classic;startArrow=classic;html=1;rounded=0;fontSize=15;strokeWidth=1;exitX=0.5;exitY=0;exitDx=0;exitDy=0;entryX=0.5;entryY=1;entryDx=0;entryDy=0;" parent="1" source="NMNSzK-s-q_iO5RZ9DI--10" target="NMNSzK-s-q_iO5RZ9DI--8" edge="1">
          <mxGeometry width="50" height="50" relative="1" as="geometry">
            <mxPoint x="250" y="80" as="sourcePoint" />
            <mxPoint x="300" y="30" as="targetPoint" />
          </mxGeometry>
        </mxCell>
        <mxCell id="NMNSzK-s-q_iO5RZ9DI--12" value="" style="endArrow=classic;startArrow=classic;html=1;rounded=0;fontSize=15;strokeWidth=1;exitX=1;exitY=0.5;exitDx=0;exitDy=0;entryX=0.5;entryY=1;entryDx=0;entryDy=0;" parent="1" source="NMNSzK-s-q_iO5RZ9DI--10" target="NMNSzK-s-q_iO5RZ9DI--7" edge="1">
          <mxGeometry width="50" height="50" relative="1" as="geometry">
            <mxPoint x="206" y="90" as="sourcePoint" />
            <mxPoint x="206.00000000000023" y="50" as="targetPoint" />
            <Array as="points">
              <mxPoint x="356" y="130" />
            </Array>
          </mxGeometry>
        </mxCell>
        <mxCell id="NMNSzK-s-q_iO5RZ9DI--13" value="" style="endArrow=classic;startArrow=classic;html=1;rounded=0;fontSize=15;strokeWidth=1;exitX=1;exitY=0.5;exitDx=0;exitDy=0;entryX=0.5;entryY=1;entryDx=0;entryDy=0;" parent="1" source="NMNSzK-s-q_iO5RZ9DI--10" target="NMNSzK-s-q_iO5RZ9DI--6" edge="1">
          <mxGeometry width="50" height="50" relative="1" as="geometry">
            <mxPoint x="256" y="140" as="sourcePoint" />
            <mxPoint x="366.3600000000001" y="-50" as="targetPoint" />
            <Array as="points">
              <mxPoint x="548" y="130" />
            </Array>
          </mxGeometry>
        </mxCell>
        <mxCell id="NMNSzK-s-q_iO5RZ9DI--14" value="" style="shape=image;verticalLabelPosition=bottom;labelBackgroundColor=default;verticalAlign=top;aspect=fixed;imageAspect=0;image=data:image/png,iVBORw0KGgoAAAANSUhEUgAAAa4AAAGmCAYAAAAkpmD3AAAMbWlDQ1BJQ0MgUHJvZmlsZQAASImVVwdYU8kWnluSkJDQAghICb0jUgNICaEFkF4EGyEJJJQYE4KKvSwquHYRxYquiii2lWYBsSuLYu+LBRVlXdTFhsqbkICu+8r3zvfNvX/OnPlPuTO59wCg+YErkeShWgDkiwukCeHBjDFp6QzSU4ABHJCALfDk8mQSVlxcNIAyeP+7vLsBEMX9qrOC65/z/1V0+AIZDwBkHMSZfBkvH+JmAPANPIm0AACiQm85pUCiwHMg1pXCACFercDZSrxLgTOV+OiATVICG+LLAKhRuVxpNgAa96CeUcjLhjwanyF2FfNFYgA0nSAO4Am5fIgVsTvl509S4HKI7aC9BGIYD2BmfseZ/Tf+zCF+Ljd7CCvzGhC1EJFMksed9n+W5n9Lfp580IcNHFShNCJBkT+s4a3cSVEKTIW4W5wZE6uoNcQfRHxl3QFAKUJ5RLLSHjXmydiwfkAfYlc+NyQKYmOIw8R5MdEqfWaWKIwDMdwt6FRRAScJYgOIFwlkoYkqmy3SSQkqX2htlpTNUunPcaUDfhW+Hshzk1kq/jdCAUfFj2kUCZNSIaZAbFUoSomBWANiF1luYpTKZlSRkB0zaCOVJyjit4I4QSAOD1byY4VZ0rAElX1JvmwwX2yLUMSJUeGDBcKkCGV9sFM87kD8MBfsskDMSh7kEcjGRA/mwheEhCpzx54LxMmJKp4PkoLgBOVanCLJi1PZ4xaCvHCF3gJiD1lhomotnlIAN6eSH8+SFMQlKePEi3K4kXHKePDlIBqwQQhgADkcmWASyAGitu66bvhLORMGuEAKsoEAOKs0gytSB2bE8JoIisAfEAmAbGhd8MCsABRC/ZchrfLqDLIGZgsHVuSCpxDngyiQB3/LB1aJh7ylgCdQI/qHdy4cPBhvHhyK+X+vH9R+07CgJlqlkQ96ZGgOWhJDiSHECGIY0R43wgNwPzwaXoPgcMOZuM9gHt/sCU8J7YRHhOuEDsLtiaJ50h+iHA06IH+YqhaZ39cCt4Gcnngw7g/ZITOujxsBZ9wD+mHhgdCzJ9SyVXErqsL4gftvGXz3NFR2ZFcySh5GDiLb/bhSw0HDc4hFUevv66OMNXOo3uyhmR/9s7+rPh/eo360xBZhh7Cz2AnsPHYUqwMMrAmrx1qxYwo8tLueDOyuQW8JA/HkQh7RP/xxVT4VlZS5Vrt2uX5WzhUIphYoDh57kmSaVJQtLGCw4NtBwOCIeS5ODDdXNzcAFO8a5d/X2/iBdwii3/pNN/93APyb+vv7j3zTRTYBcMAbHv+Gbzo7JgDa6gCca+DJpYVKHa64EOC/hCY8aYbAFFgCO5iPG/ACfiAIhIJIEAuSQBqYAKsshPtcCqaAGWAuKAalYDlYA9aDzWAb2AX2goOgDhwFJ8AZcBFcBtfBXbh7OsFL0APegT4EQUgIDaEjhogZYo04Im4IEwlAQpFoJAFJQzKQbESMyJEZyHykFFmJrEe2IlXIAaQBOYGcR9qR28hDpAt5g3xCMZSK6qImqA06AmWiLDQKTULHo9noZLQIXYAuRcvRSnQPWoueQC+i19EO9CXaiwFMHdPHzDFnjImxsVgsHcvCpNgsrAQrwyqxGqwRPuerWAfWjX3EiTgdZ+DOcAdH4Mk4D5+Mz8KX4OvxXXgtfgq/ij/Ee/CvBBrBmOBI8CVwCGMI2YQphGJCGWEH4TDhNDxLnYR3RCJRn2hL9IZnMY2YQ5xOXELcSNxHbCa2Ex8Te0kkkiHJkeRPiiVxSQWkYtI60h5SE+kKqZP0QU1dzUzNTS1MLV1NrDZPrUxtt9pxtStqz9T6yFpka7IvOZbMJ08jLyNvJzeSL5E7yX0UbYotxZ+SRMmhzKWUU2oopyn3KG/V1dUt1H3U49VF6nPUy9X3q59Tf6j+kapDdaCyqeOocupS6k5qM/U29S2NRrOhBdHSaQW0pbQq2knaA9oHDbqGiwZHg68xW6NCo1bjisYrTbKmtSZLc4JmkWaZ5iHNS5rdWmQtGy22FldrllaFVoPWTa1ebbr2SO1Y7XztJdq7tc9rP9ch6djohOrwdRbobNM5qfOYjtEt6Ww6jz6fvp1+mt6pS9S11eXo5uiW6u7VbdPt0dPR89BL0ZuqV6F3TK9DH9O30efo5+kv0z+of0P/0zCTYaxhgmGLh9UMuzLsvcFwgyADgUGJwT6D6wafDBmGoYa5hisM6wzvG+FGDkbxRlOMNhmdNuoerjvcbzhveMnwg8PvGKPGDsYJxtONtxm3GveamJqEm0hM1pmcNOk21TcNMs0xXW163LTLjG4WYCYyW23WZPaCocdgMfIY5YxTjB5zY/MIc7n5VvM28z4LW4tki3kW+yzuW1IsmZZZlqstWyx7rMysRlvNsKq2umNNtmZaC63XWp+1fm9ja5Nqs9Cmzua5rYEtx7bIttr2nh3NLtBusl2l3TV7oj3TPtd+o/1lB9TB00HoUOFwyRF19HIUOW50bHciOPk4iZ0qnW46U51ZzoXO1c4PXfRdol3mudS5vBphNSJ9xIoRZ0d8dfV0zXPd7np3pM7IyJHzRjaOfOPm4MZzq3C75k5zD3Of7V7v/trD0UPgscnjlifdc7TnQs8Wzy9e3l5SrxqvLm8r7wzvDd43mbrMOOYS5jkfgk+wz2yfoz4ffb18C3wP+v7p5+yX67fb7/ko21GCUdtHPfa38Of6b/XvCGAEZARsCegINA/kBlYGPgqyDOIH7Qh6xrJn5bD2sF4FuwZLgw8Hv2f7smeym0OwkPCQkpC2UJ3Q5ND1oQ/CLMKyw6rDesI9w6eHN0cQIqIiVkTc5JhweJwqTk+kd+TMyFNR1KjEqPVRj6IdoqXRjaPR0ZGjV42+F2MdI46piwWxnNhVsffjbOMmxx2JJ8bHxVfEP00YmTAj4WwiPXFi4u7Ed0nBScuS7ibbJcuTW1I0U8alVKW8Tw1JXZnaMWbEmJljLqYZpYnS6tNJ6SnpO9J7x4aOXTO2c5znuOJxN8bbjp86/vwEowl5E45N1JzInXgog5CRmrE74zM3llvJ7c3kZG7I7OGxeWt5L/lB/NX8LoG/YKXgWZZ/1sqs59n+2auyu4SBwjJht4gtWi96nRORsznnfW5s7s7c/rzUvH35avkZ+Q1iHXGu+NQk00lTJ7VLHCXFko7JvpPXTO6RRkl3yBDZeFl9gS78qG+V28l/kj8sDCisKPwwJWXKoanaU8VTW6c5TFs87VlRWNEv0/HpvOktM8xnzJ3xcCZr5tZZyKzMWS2zLWcvmN05J3zOrrmUublzf5vnOm/lvL/mp85vXGCyYM6Cxz+F/1RdrFEsLb650G/h5kX4ItGitsXui9ct/lrCL7lQ6lpaVvp5CW/JhZ9H/lz+c//SrKVty7yWbVpOXC5efmNF4IpdK7VXFq18vGr0qtrVjNUlq/9aM3HN+TKPss1rKWvlazvKo8vr11mtW77u83rh+usVwRX7NhhvWLzh/Ub+xiubgjbVbDbZXLr50xbRlltbw7fWVtpUlm0jbivc9nR7yvazvzB/qdphtKN0x5ed4p0duxJ2naryrqrabbx7WTVaLa/u2jNuz+W9IXvra5xrtu7T31e6H+yX739xIOPAjYNRB1sOMQ/V/Gr964bD9MMltUjttNqeOmFdR31afXtDZENLo1/j4SMuR3YeNT9acUzv2LLjlOMLjvc3FTX1Nkuau09kn3jcMrHl7skxJ6+dij/Vdjrq9LkzYWdOnmWdbTrnf+7oed/zDReYF+ouel2sbfVsPfyb52+H27zaai95X6q/7HO5sX1U+/ErgVdOXA25euYa59rF6zHX228k37h1c9zNjlv8W89v591+fafwTt/dOfcI90rua90ve2D8oPJ3+9/3dXh1HHsY8rD1UeKju495j18+kT353LngKe1p2TOzZ1XP3Z4f7Qrruvxi7IvOl5KXfd3Ff2j/seGV3atf/wz6s7VnTE/na+nr/jdL3hq+3fmXx18tvXG9D97lv+t7X/LB8MOuj8yPZz+lfnrWN+Uz6XP5F/svjV+jvt7rz+/vl3Cl3IFPAQwONCsLgDc7AaClAUCHfRtlrLIXHBBE2b8OIPCfsLJfHBAvAGrg93t8N/y6uQnA/u2w/YL8mrBXjaMBkOQDUHf3oaESWZa7m5KLCvsUwoP+/rewZyOtAuDL8v7+vsr+/i/bYLCwd2wWK3tQhRBhz7CF8yUzPxP8G1H2p9/l+OMdKCLwAD/e/wVlFJDTGL7ubgAAAIplWElmTU0AKgAAAAgABAEaAAUAAAABAAAAPgEbAAUAAAABAAAARgEoAAMAAAABAAIAAIdpAAQAAAABAAAATgAAAAAAAACQAAAAAQAAAJAAAAABAAOShgAHAAAAEgAAAHigAgAEAAAAAQAAAa6gAwAEAAAAAQAAAaYAAAAAQVNDSUkAAABTY3JlZW5zaG90pqde+QAAAAlwSFlzAAAWJQAAFiUBSVIk8AAAAdZpVFh0WE1MOmNvbS5hZG9iZS54bXAAAAAAADx4OnhtcG1ldGEgeG1sbnM6eD0iYWRvYmU6bnM6bWV0YS8iIHg6eG1wdGs9IlhNUCBDb3JlIDYuMC4wIj4KICAgPHJkZjpSREYgeG1sbnM6cmRmPSJodHRwOi8vd3d3LnczLm9yZy8xOTk5LzAyLzIyLXJkZi1zeW50YXgtbnMjIj4KICAgICAgPHJkZjpEZXNjcmlwdGlvbiByZGY6YWJvdXQ9IiIKICAgICAgICAgICAgeG1sbnM6ZXhpZj0iaHR0cDovL25zLmFkb2JlLmNvbS9leGlmLzEuMC8iPgogICAgICAgICA8ZXhpZjpQaXhlbFlEaW1lbnNpb24+NDIyPC9leGlmOlBpeGVsWURpbWVuc2lvbj4KICAgICAgICAgPGV4aWY6UGl4ZWxYRGltZW5zaW9uPjQzMDwvZXhpZjpQaXhlbFhEaW1lbnNpb24+CiAgICAgICAgIDxleGlmOlVzZXJDb21tZW50PlNjcmVlbnNob3Q8L2V4aWY6VXNlckNvbW1lbnQ+CiAgICAgIDwvcmRmOkRlc2NyaXB0aW9uPgogICA8L3JkZjpSREY+CjwveDp4bXBtZXRhPgpzA0rtAAAAHGlET1QAAAACAAAAAAAAANMAAAAoAAAA0wAAANMAADq7AskX+AAAOodJREFUeAHsnQfYHUXVx5eaUIJJ6CVBQpEWaQoCUhWkJzTpXfABKVIFhI+iIOAjSIi0UEQDUgJICyJVinQBKaEnIRASWoCELuw3v8lzbvbd3Pve3ffu3rv37n+eZ+/s3Z2dcubM+c+ZOTMzS+hcICcKiAKigCggCrQJBWYRcLVJTSmbooAoIAqIAp4CAi4xgiggCogCokBbUUDA1VbVpcyKAqKAKCAKCLjEA6JAG1OguynqWWaZZaaSff3118GXX37pr6+++ir44osvgl69egX9+vULZp11Vh++2nczRaQHokALKSDgaiHxlbQokJQCAJSBVPQesDGgsffECUC9//77/nrvvfeCd999t3L/9ttvBxMnTgwmTZoUjB07Nthoo42C4cOHe/DiW4uPezlRoIgUEHAVsVaUp46nQBRkooWNgtI333zjwYpns88+u9eI7Jn5ABQgBACNHz8+eOONN/z1zjvveLCaMmVKAHB99NFH0WS63A8dOjS49NJLBVxdqKI/RaaAgKvItaO8dQQFDKTMp1Cm1USf2XPA6PPPP/fDeAzlffbZZwEA9NZbbwXjxo0LJkyY4EEKjeqTTz4Jpk6dGnz88cfe53/UEb9dNhTIe56RB/xtt902GDFihIArSjjdF5oCAq5CV48y104UAASqOQOp6Ds0JptjApwAKgAKYHrxxReDl19+2V/cA1iEjzrijAORAVQ0XHf3li80rksuuUTA1R2x9K5QFBBwFao6lJkiU8CAqZofnWuKlgFDCIbqovNN3E+ePNnPMTHMBzAx38RzwuPSglA0zaT3Aq6klFK4olFAwFW0GlF+Wk4BAyabRzKfjM0xxxxdNB3LLFqTDeW99tprlTknQIuLoT4u5posfvvW/Cj4GXDVCmvfNOILuBqhnr5tJQUEXK2kvtJuKgXiIMB/E972znxAxIbybL7J5prQkjCCMGOIDz/8sMs8E+D06aefVspmcZpvaRLAnplf+agJN5YPDRU2gdhKIlMKCLgyJaciKxIFomCAkI7+j+YzuraJoToMHACll156KRgzZoz3ucdSD+3LLr7D2VwT8dvF81rp8a4ITsBVhFpQHnpCAQFXT6imb1pOAQOFKFCQqehwWzSTaEvMIdmQnd3bHBPDfFz8Z2jvf//7X/TzjrwXcHVktZaiUAKuUlRz+xbS5pcAKLunNMw1meCNlo7hPdY0cb3++utec8J8HKD64IMP/MXQHubj0fgMCIkrqkHxP/qO/53ijH4aKuyUGi1POQRc5anrQpQ0DgL2HyFq9+aTYZ5Xm2tiHglAYq7pzTff9L4BEqDEey6G/QyIiM/ixq/1nHBlcAKuMtRyZ5ZRwNWZ9VqYUhlQJMmQAZSta5o2bZpf1/Tqq68GXMwzYbEHQDGUR3h8LrQnGyaMa1Jp8pAkn50SRsDVKTVZvnIIuMpX55mVOAoI0XsSQCiaYLQECYO1HcBjpuHcM4SH9sQcE77dM9cUj9fikt84Bax+NFTYOC0VQ3MpIOBqLr3bMjXAo9pFYZhrqubYhsjMxdkNgvkmDB8MqAArwAutCo0pGr/FZ4KV/wIwo0p2vtFXwJUdTRVTcygg4GoOnQuXShwI7D/CLAoi3PNsttlm80NzdiQGw3ncM4/EHJPNN6E1mcUewMR8Ez6alglKS8vitrkmSxdiWZjCEa6DMmT1IeDqoEotSVEEXCWo6LQgYHNMLLzlQksCnJhfYq4J7QkfE3MDMvNZ2wTIGQiZHyVz2vxEv9V9dhQQcGVHS8XUXAoIuJpL79xSi4OB/Uc4mYCyxDFesF3F0ZgAJnyba7KjMcznfdxZvJaO+fFw+l9cChhfSOMqbh0pZ9UpIOCqTpdCPgUcql0IIM5rquYYprPtiWzOiYMEec5lc03MSWGlF43f4jMBJ3AyinSGb/Uq4OqM+ixTKQRcLaztakDAMwRKHEDsOfNBAIxdDNFxj8YEMHGZZR5WeWhL0YuhPxNYFN3ywDPNNbWQGVqQtPGBgKsFxFeSDVFAwNUQ+ZJ/bABhXxgQ2X/z7Tk+c00YNTCXxAUAMdfEHJNZ6gFShInOS3GfZK6JNOP5snzI73wKCLg6v447tYQCroxrtjsgMEFhSUbnmuwUW6zwsMpDcwKc2LoIn+G++Om2xGOakqWLb/eWjnxRoBoFjB+lcVWjjp4VmQICrh7UjoGDAYT9RxBgURd3vAeMbBNX29j13Xff9Ru64vPehvYYzrM4LY14nPovCjRKAQFXoxTU962igIDLUb47cIgCiN0bQMW3HWKuCWMHtCPTlBja4zgMhvnMgg+tiuE8ExzR9HnGXJM9szRbxSBKt3MpYPwnjatz67hTS1Y64DJAoELt3hqwVXL0OffMLzGPZBcghPbEEJ5daFE2F4XGZHNTfG9AxL1dlpb5PJcTBZpJAeN7AVczqa60sqBARwNXNTCwxmrEIwyGDIAN2w9x2XwTQ3jRIzK4ZxGuHSBoceADTgZQ/Gf+ClctD/6FfkSBFlPA2oKAq8UVoeRTU6CtgctAAd8uKECDBETijjAM27GOya5JkyYFABTPo3NODPkBZjhLJx6f/osC7UwBAVc71165814o4KoFEPYcn8uOrQCcMIZAA7KLeSfuASKbZ0JLYt4JYLJ5JnyuatoTLEGjtoZt6ZabVVT6TqOA8bc0rk6r2c4vT0uAy4AI8kbv+U9jij7jnmeAlc0xmQ/wMNdkC2/xJ0+eXAlnc1OYkROPDeVxH02jWprkRU4U6GQKCLg6uXY7u2xNA644UEDW6DP7j2WeGTkYQGH4wKauL7/8cuVCg0K7ijs0sDhAxYEq/o3+iwJlpICAq4y13hllzgS4osBgYIQPgNA4rIEYyQAcNKPoxVwT65jsmc05sb4J03E5UUAUyJYC1i41VJgtXRVb/hToMXAxdId2BECxwatpOTy3OSjeM5Rn1nhoTdwz18RaJruw5Ks31xQFxPzJohREgc6ngICr8+u4U0vYY+BiOA9QYjiPuSaG82ybIhbdAk7MLXERxnwAyBoM9wZIEJjn0f/R+06tAJVLFGgVBawdonGNGDEi6N+/f6uyonRbSAHjgxZmIXXSqYELMKGg9913X7D77rt78KqWKke6GxDxDZdpYtXC65koIAo0lwImsGyoUMDVXPoXJbVqCoLxRlHyGM9HauACfBgWHDVqVLDjjjt6c3Se4aoRIJ6g/osCokAxKGDCaciQIcHw4cODeeed13cu7Xkxcqlc5EmBueaaK+jVq9dMSZhMN14wf6aALXrQY+C6/vrrPXBRICtki8qgZEUBUaABCvTt2zcYOHCgj4HOZ9GEVANF06d1KMDIGB2WRRZZJFhiiSWCxRdfPFhppZWCjTbaKOAdsh1bBay1uYrCGw0B1w477OC1LwFXHe7Qa1GgwBRAGNlV4GwqazlSABnOSFrv3r2D+eabL1h00UWDVVZZJdh00009kA0YMCDo06ePD0M2Wg1gAq4cmUFRiwKigCjQDhQwILIODD5ghsU4YLbXXnsFBx10ULDccst1AS37rtllFHA1m+JKTxQQBUSBNqGAARNDyAwn77vvvn6KaMUVV/TAhpbWCifgagXVlaYoIAqIAm1EAQAM8AKollxySQ9gRxxxhNfIzIK8qcVxmUnl3EJhH95ZFXKAVOgK4n3udYkG4gHxgHigc3nAAVjINffcc4cHHnhg6LbeC91OSKEbVvRXKjBpILA0LtfK5EQBUUAUEAWSUwDNCyvDNdZYI7j44ouDlVde2X9sQ4vJY+phyLSgJ42rc3tTjoWkNYsG4gHxQCIeQPNCZjjrw3D06NGh21PWa19pMaUn4aVx9RDw9ZkoIAqIAqLAdApgLn/FFVcE66+/vrc6zNtoQ8AlzhMFRAFRQBToMQUYHgSo1ltvPb/n5aBBg3JfFyjg6nF16UNRQBQQBUQBKAB4Mee1wQYbBFdeeWWw0EILecLkNueVdnxRc1yaB3IcmWgMXOFEJ/FAeXiAOS8HXqEzkw8///zz0LAiLcYkCS+Ny/cL9CMKiAKigCjQKAXQsOaZZ57g9ttvD9Zee20/hJiH1iXgarSm9L0o0AEUQLjkIWA6gDQdXQSn3XQpX/x/l5cJ/sBDxLHhhhv6IcMFFljAb9abNW8JuBJUhoKIAp1OgTnnnDPgiAu5clHgyy+/DDgUGGegY34jlEDrOvfcc4N99tnHR5O1laGAq5Ha0beiQAdQgH3n9thjD3+sRdYCpgPI09FFmDZtWvDOO+8EY8eODV566aXghRdeCKZMmdJwmTHUYKjwxhtv9CdrZ85XSSbComFswk1bPpVn0tVxsYwxOpAGrmftt+/Zfvvtww8++CDazHVfMgq4M7f89k0OaMJtt93WG1lgaNHTtg9vOa0rPO+88zwl2RIqSyeNq+G+hSIQBdqTAgwJ4YYOHeq37enfv7//b8/9H/10NAUcmMxU52hc11xzTXDKKacE7733XuCUlR7RAC1riy22CJySU/WU5R5Fah+lRUFpXNI+HO/0uCemb4tDO9O46GG///77Td8oNa3sUfj8KGCb5CLf0b4+/fRTv42TW0zc47YOfy299NLhs88+mzlvYQGSygm4iiN4BAKqi0Z4QMCVSvSVKrDt+D5y5MjQnYjcI/CCv9xBlOF1110n4GqkoepbCXrxwAweEHCVCotSFRYNDCXlk08+CQ8++OCwV69efj40TftxQ4X+myOPPLJy9EmqTHQTWBqXhr161JtKw8AKOwMsikQLAVc3klGvKlqSm+cKneWp157S8C/8RXi3piucOnVqpjtpCLgEXAKukvKAgEvoVI8CpnmddNJJYe/evVMdHGzABegxh2rTTPXSTPJeVoWuSyAnCpSRAk6w+GJjVXjJJZcE/fr18//teRlpojLPTAEHXsGDDz7orU8//vjj1FaGiyyySPDMM88E888/v9+Id+YU0j8RcKWnmb4QBTqCAgZQAq6OqM7cCuEMNYJx48YFm2yySTB+/Hi/pVPSxOCxOeaYI3jttdeCRRddVMCVlHAKJwqIAtUpIOCqThc97UoBgGvSpEmBW6gePPbYY11f1vnHWi40tqeffjoYPHiwD53JLhpJxhOjYWycUjtnFHPC3XGG5qxEg0Q84IDLW31pHVdUwuk+TgFM4x1whW4xcSK+isogLAv573aL98Yehh/xNNL+l3GGhFxqZowypu7bt6Mg4EorLssZHuBy+xmGQ4YMSS0r4DFkxE033eSJJ+AS4KRmIoFM+4JMHnUn4ConEKUttYBLYCOwEQ8UhgcEXGlFeDnDC7gktAojtPLowSvO9tLoBFzlBKK0pRZwCbgEXOKBwvCAgCutCC9neAGXhFZhhJa0o/bSjvKoLwFXOYEobakFXAIuAZd4oDA8IOBKK8LLGV7AJaFVGKGVRw9ecbaXFifgKicQpS21gEvAJeASDxSGBwRcaUV4OcMLuCS0CiO0pB21l3aUR30JuMoJRGlLLeAScAm4xAOF4QEBV1oRXs7wAi4JrcIIrTx68IqzvbQ4AVc5gShtqQVcAi4Bl3igMDwg4EorwssZXsAloVUYoSXtqL20ozzqS8BVTiBKW2oBl4BLwCUeKAwPCLjSivByhhdwSWgVRmjl0YNXnO2lxQm4yglEaUst4BJwCbjEA4XhAQFXWhFezvACLgmtwggtaUftpR3lUV8CrnICUdpSC7gEXAIu8UBheEDAlVaElzO8gEtCqzBCK48evOJsLy1OwFVOIEpbagGXgEvAJR4oDA8IuNKK8HKGF3BJaBVGaEk7ai/tKI/6EnCVE4jSllrAJeAScIkHCsMDAq60Iryc4QVcElqFEVp59OAVZ3tpcQKucgJR2lILuARcAi7xQGF4QMCVVoSXM7yAS0KrMEJL2lF7aUd51JeAq5xAlLbUAi4Bl4BLPFAYHhBwpRXh5Qwv4JLQKozQyqMHrzjbS4sTcJUTiNKWWsAl4BJwiQcKwwMCrrQivJzhBVwSWoURWtKO2ks7yqO+BFzlBKK0pRZwCbgEXOKBwvCAgCutCC9neAGXhFZhhFYePXjF2V5anICrnECUttQCLgGXgEs8UBgeEHClFeHlDC/gktAqjNCSdtRe2lEe9SXgKicQpS21gEvAJeASDxSGBwRcaUV4OcMLuCS0CiO08ujBK8720uIEXF2B6Jtvvgm55LpSQMAl4BJwiQcKwwMCrukCGrBCOI8fPz6cOnWqwKsrbnnavPPOO+GQIUNS8y48Rof2pptu8rF+/fXXsdh79jdI+5klPGrUKJ+hWWedNXVh1DNvr5656qsz60vANV36AVzItdNPPz18+OGH/X1audjJ4aVxqbctkBcPFIYHBFxdgeu4444Ljz32WP9QQ4YzoFjAJaFVGKElLaoztag09Srg6gpcZ599djhw4MDwrbfe8sOFAq/p9BFwCbgEXOKBwvCAgKsrcA0bNiyca665woMPPjj84osv/NyOwCvUHFea3qDCSiMQD+TLAwKursB1/vnnh/POO2+48MILh2PGjJHWNZ08Ai4JonwFkegr+qbhAQFXV+AaMWJE2KdPn7B3794hIIZjmKzsTkOFGiYqzDBRGgGnsJ0JiAKu6ZBkVoVnnnlmOOecc/o2uueee/qXWBuWfbhQwCXgEnCJBwrDAwKuGcCFcD7ooIPC2WabzdfP4MGDw1dffVXzXI5EAi4JrcIILWlRnalFpalXAdcM4MIYY7vttqsAF0Yat956a/jVV19J43KgrgXIAi+Bl3igEDwg4AoroDRx4sRw3XXXrQAXtBk+fLg0Lmlc6uGm6Q0rrPglbx4QcM0ArqeeeipcZpllQtsJCNoceOCB4bRp00q/k4aGCtXTLkRPO2+BqPjbA3QFXNOBC+OL0aNHh/PNN18ITYx/119//XDcuHGltywUcAm4Ko3CGof89hDynVhPAq4ZwHX55Zd70IoC12KLLRY+88wzfp5r+mxYOX8FXAIuAZd4oDA8UHbgQtPiwjCDPQqhhw0V0lHp27dv+MQTTwi4ZJyh3nUn9txVpvbkawHXdOCaPHlyuM466/gORVTj+ta3vhU+/vjjAi4BV3s2cAlm1Vsn8oCAa/pxJv/973/9jhm2hsvqmjkvAZfWcRVmiMQYU74Aqcw8UHbgYu7m888/D0844QRvBh8dJoQv2Lfwsccek8YljUuCssyCUmUvFv+XGbiY2wK4xo4dGy600EJVO9X9+/cPn3zySQGXgKtYDVeCVPVRZh4oM3ABWl9++WXI/oS1eGC99dYLx48fL3N4AZcEZa1GoufijWbzQFmBy7Stjz76KFxrrbW6rN2yOoA2hx56aPjZZ59VdtcopzG85rhq9myMWeRLeIsHmscDZQcutnTC5L0az0GbSy+91A8TAnRldlrHpTU8VRtJtYajZ80T4GWldVmBi6NKHnjggXDgwIFd1m1F+QCLwnvuuUd7FTrEFnAJuARc4oHC8EDZgAvNiWvChAkh81dW/ihg2f1qq60WjnWGGzqPS8BVmAZrzClfWk2ZecAE97bbbhu+//77Xqh38rAYmgNzVsxdzT777DW1LXhi//3396DFN51MkyRDoNK41NsWeIsHCsMDZQEugAfN6dNPPw2HDRsWzjHHHFUNMgAsaMKOGQwT2ndJhHsnhxFwSWgVRmiVWdNQ2adr2mUBLgQvC40xfccYI75DhvED9EAT22yzzXx4DRNOh2MBl4BLwCUeKAwPdDpwoTFxcXrv0Ucf7bd1ApgMqOI+mtgCCyzgd8sAtLjkNMdVk2HiDKT/mnsSD+TPA50OXAAPa7V22223cM4556w5PAivGS2GDBlSmesD9OQEXAIuaRvigQLxgAnrTjLOAGwY2uJ66KGHws0337xbIwzrILFP4aKLLhreddddpTfGiIO1hgoL1GiNYeXn37MXjYtJ404DLpuTmjp1anjBBReEgwYNqmhS3fEgdJh77rm94YZ2yojDljQu9bYF3OKBAvFApwAXWhaghWYwceLE8PDDDw/nmWcer2lRxu5Ai3cYa+y+++7hlClTfBwzi+5yP5HGVaBGW4+Z9b6YWoLqJbt66TTguvfee0MWDndngFGNf5ZffvnwlVdeqcxtlRumZi69gEvAVbf3V61h6Vl2wlq0nEHLdgcutCwurAYxded4kiQalvEAmtaAAQP89k8W18xiW08EXAIuAZd4oDA80K7AxdAgR5Lgc3rxrrvu6ueo0oAWxhhzzTVXeO6553rwIy4uuZkpIOCS0CqM0LJep/wZGkjZaNGOwAW4oB2xC8bVV18drrHGGr5NpR0e7NOnT3jKKaeEH374oea1ZsaqLk8EXAIuAZd4oDA80K7ANXny5PCQQw4J559//kSm7vEOCYYb55xzTvjJJ5+U/nTjLghV44+AS0KrMEIr3pj1v3yaV7sAl2lZDA8+//zz4aabbppqLst4m+HBeeed12tamL2juTXqLG/4XJ3oBFwCLgGXeKAwPNAOwAUYIDgBmSuuuCJcYoklvPk6eTdASuIDWqzVYniQYcZGgYb8fPXVV5W8YYY/adKkhuMtIvAJuCS0UjW2JA1SYcqnKWVV50UGLgMWAOLtt98OTzzxxHDBBRf07QcQSkMDrAfZ8f2kk07yc1oATk+0I8sTgpwLAHzppZfCs846K/zzn//s15CR357EXUTAsjwJuARcqRpcmsapsAKwtDzQDsD14osvhltttVXd87O6KzsnHV977bXhtGnTGprTMuBibuzBBx/0eyB+//vfD4cPH+7BtRNBC/AScAm4BFzigcLwQBGBy8AB//HHHw8XX3zxHtMLTWuppZYK77//fj/UCLCkddH8AHxPPPFEuMsuu/gzvfr16xeOHDnSC3bCdaoTcElo9bgRdtej1DtpWz3hgSICF0KS69Zbbw1XXHHFHrUXK9c222wTPvPMMx60DICSggsgx5AiPnsf/u1vfwt32mknb8kIIG600UbhI4884sOkjTtpHooSTsAl4OpRQ+yJUNI3ArN6PGACvgi7wyP8AQkOfLzsssv8LhgARL0yxN/zTe/evcO99947nDBhQipNywAIQQ1oMSQ4atSoEPpgjUhaxM0xKbZFFOE63Qm4BFypG2K8Yeq/ACkrHigKcBloodmwdROHOQJA5C9tWeebbz5vOfjBBx9UNKYkwGKghQ9g3ev2Pdxiiy0qAEpeWP91xhlnhO+9957XCnsy9JgkL0ULI+AScKVuiGkbrsIL2JLyQBGAC6BAMLKuCsvBpHmPh8PSEKvDyy+/PJVJehSw0J7efPPN8Be/+EXYq1cvnxcDT8AUAw/AqiyAZQAq4BJw9bhhxhuq/gugGuWBIgAXIICGw04Wffv2Td0+rAzsCj969Ojwiy++SGyObqBJHjBr/+1vfxsuu+yyld3lAUPiX2GFFcLbb7+9440wDKjivoBLwJW6YTYqnPS9AK4WD5jQb8Ucl2k6CEUWFrPOivzUymu15wAL17rrrhu+8MILHrCSaEOkTThAjt040KS+973v+bQtTnzSXHPNNb0lIeHJaxmdgEvAlaphVmuseiYgyooHigBcrIdCy0k7p0XeMZTYYYcdPGghXLkApe6cASbDgq+//np46KGHhosssogHzagxCJv2/vCHP6xYDgJc9eLuLt12fifgEnAJuMQDheGBVgGXAcC4ceP8Oq20mhbAjUZ01FFH+bmxtKBCeIYVbfuoah2BjTfe2J+InDbudgaoWnkXcEloFUZoVWuselYuba4VwAVoIQjHjBkTAg5peM4AjkXJF110kd8Jw0CwltC156TJxfldGF9gfRhPG41rjjnm8Ou1XnvtNa9hJY3f0ulEX8Al4JqpscQbj/6XCzxaWd+tAC40GCwIDzroIK81GRjVowMaFmE5yuS2226rWPclARYEL+nefffdlUXNNodl6QJaPDvggANKsag4DcAKuARcAi7xQGF4oBXAxdzS9ddf79dqJQUtyyf7Aj7wwAMehIinHmjxnotFzWyCu8wyy3jwi4MW4MV82YEHHtjRew6mAatoWAGXhFZhhJb1NOWXV8MzQGiGVaGBCDu9b7LJJqm0LXgUAw72CTTAqgdaCF7CYDX4pz/9ye98ETW+iPI9dEDTIixCOkncUcHe6fcCLgGXgEs8UBgeaCZwmZHDiBEj/LlYtUAkCijck8cNNtjAz00RRxIH8CBsWUx8zDHHhHPOOWdVmqN5kY+dd965Y8/SSkKvemEEXBJaVRtQvLHqf3m1oGbWfbOACyABdDhocdCgQV7bqldO8kYY1lc99dRTXgtKClxm6s6muAwBWlzRNAEtrq233jp8//33ff6kaVWHMAGXgEvAJR4oDA80C7gAEo4EOeyww3zZqwFJFFR4D6gAWs8//7wHFYRnPQfwcL3xxht+Y1yLJxq33RP/yiuvHD755JMCrTqEFXBJaBVGaFkDll9e7a4ZwIWWxIVFH+umkvAb+Zp77rm99SBCM6kmRDoYYmDuzvBgd8ORbJh73XXXpdoiqo5879jXAi4BV6KGm6RxK0x5ASerum8WcAE8LBZGy0mS9z59+oSnnnqqB6GkaIBw/fTTT8PTTz+97i4cgNrJJ58sTSshcQVcAq5EDTdJ41YYAVejPNAs4Hrrrbf8wYukVy/PgBtzU3Z0SBLZiqaFcL3jjjvCRRddtG4anIrMAmOzUEySRpnDCLgEXHUbVb2GrfcCrKx4oBnAhdBjE1s7iLFe3vv16xc+/PDDXhsCkJI4wnH+1pAhQ/zOF7XSoLwMHx588MF+iJC8ydWngIBLwCXgEg8UhgeaBVycs4UmlUTj+slPfhJ+/PHHfk1V0rktBOuwYcNqWhAakAFa7LyRZif5+mK980MIuCS0CiO0rDF3im9COO7nWb5oWnmmk1fclv88FyADQvvtt58HLdKrVRaAjbkndrhgCC+JNgSwcTGsuNVWW3ULjlbWLbfc0iNNUm2u82GpfgmLCFyzkG3HTImdY5TAMVngtm0J3JEC/p5ncsWhAPWDc4214tu9f+B+4tXO/+hl4Yrgk/f4Bc854VPJXrx89oIyubU8gZvw95cbsqrc2zN8t7lq4Bqoj5N4LX7ueW7/p0yZErg5m8Atbg0+/PBDS6ZCT2jPRXiuIjuj2dChQ4NLLrkkcMN0Prv2vJG8G3+98847wb777hu4gxgrNKoWrztGJHCnDgdumDBwZuo+rPFxtfA8szTc0SiBA9+AuqlFc6dtBaThDosMjjzySB9lFuWslbdOek4bcEOxwf777x/cdNNNqYoGjaknvttmm218/dSr1yQJCLiSUKnAYWAMu8gmTAZjWEOlsXLPM2vocZ/GjnB2PV3vE94YjncWvhlksLKYT5rkjXIALnYBRu4cpWCxxRYL3CGE/nI7fgdcgJMzdw7mmmuuRJfr6c9UNMpd7XKn9QZuwWrgevn+QjADYm7tUDB+/Hh/jwAlHN/jqJMiOmiMyxO4xo4dG+y4447Bf/7zn25JQP1Spy+++KKvUwJb/mp9aHzpDqIM3JZNnk/hlWoOnqaezz///GDvvff2YevFXy2eMj4TcJWx1nMuM43PrXmpaBEIc2dZ5Ru/WzdT8RHoNOooQBlQTZ06NUDAcDlrKy+E3YLRwK2JCfDdHm45l2JG9JSHnjcXggwQGjBgQOA2SA2WX375YLnllvP/DZgIg9CLXsSBUAM4TDjFfVK0ZzNSn35nz00wRt/zzC6e0yGApm7Hc385k2wPXqNGjQruvPPOYPLkyV00s2hcrb63cuYNXNtvv33w9NNPd1tcgIW6fPzxx309E9jyV+tDq4eTTz45+N3vfufrpVYngQ4PwOXWbgWbb765gKsWUas8LyJwUYGpnCuED+8aph+vdg235ri1o4He5UADJ6TDhRZaKHSC3JsOu2Ge0PX2ay7UdALcv4v63VU6dewEbvivf/0rdEMrflNUBxjhggsuGJJ2XvXqtKfQDSuFZ599duiGlkIHpDPNdVAG8mdXtEzct8JF82Dtg3w4QPPl2HPPPf1xGv37909koJAXfePxOmDw+cljjstowi4WnCQcTzv+3wGXX3T8yCOPeF6N0rFWnRKG+TCnQfn5re5kEXzLouObb77ZR9cqXqlVliI/h4/dyIK32ozXW73/8Bhh3FChL2KSek1CCwGXI6o14Hp+vUrK4z2NkUZN3pzm4XexPu+888L77rvPg8sXX3zhBSQNEaawywSH+dWYwd5F/fj3CAYWdk6cONHvfjB8+HAPLqyXMaY0v9HyuyGl8N133/XCiHxYvuJ5qlaWoj2zPONTR+yK/o9//MObYjvNwtOOem2UZo18b/yeB3BZfVDuzTbbrNLGauUXWkAXOixGO4ujlk84+HOfffapC1zE77Su8Fe/+lXi+GulW7bnRQSuUsxxfec73wncqal+OMmGoBiWiA5J2b29Z1jBhhdsXsWBRXDhhRf6YQYnVF0bzM85oVKZp2IOZ6+99vJzEauttpof8uA9jnxwb1dWOXKN05fTfNfwfdT8Z+jQbXwauN5xcOONNwbuuAk/TNZo2tttt52fg3CaiS971mVqNH89+Z764WJIkfIwlOg02cB1AAKMCpgLw+XNT9XyTn5weQwVWnoYsLh1U8FVV13lH8E/1Rz0oZ0xX4XRF3njWXfOaObAKDjnnHN8UAdmVT+xsjrtL6Ad4+rF7wPpx8/RFs04o6M1LseYvif217/+NWT1PloDQ2D06lmw6BpV6OZ3Qic8/PYynMdDD44eBhf3PLOLIxkYciBex8+5Xg5AQ4bn3Nh9+Nxzz/l8kh/rjeK7huvkQP6OdLiiaZMXTrJlKGi33XbzNHHCoSGaOIHl64Z0Os1F6Qft0ESuueaakMMR8xx+7Y5PqS+uPDUu2s4pp5xSlz9oU66zGDrjicq5WPV4wGjKcDY0rKfB8p7hWs71sm/rpaH304e8NVSYs8CPNlQaA8x6ww03VMAoKnxh3lpXNYa96KKLmgJcffv2DQ8//HC/ozb5A0Txi+YQwKyhcRptQ4BlddbJwBWvO6tTOlBHHHFE6LTqTGhotEziNwO44BE6jvXAmbzQXtkglw4R39Vz1iY4KDIJcJEGdIHPGP4mDYujXlplfg+vCrhaAFx///vfK9pCIwyYJ3DRaGlYTGQzzs8u1zSqojYs8gVDOyuwur3pJELUBAracCdqXNX4zuoXAXrllVf6OUwTrklp1kg40uLKU+MyHknaueEoExYtMy9Yzxn92FIKba0eOBqtFlhgAT9HzPdl4bV6tOzuvYCriaAFk5rGVXTgQit0a47Cn//85+FYZ0lnoIBfVAczI1zOPPNML/xMKDTil0njsnqljgEuhtSweOOgRfihGQDWDOACGBiKZzg5SZnccg4/jJpEG4J2XPfcc4+3GKS9J+U/Tj02QyCrC/nVKSDgEnDN1LBozPQAsdZzC1crQ5rVWag4TxG0H330UcjeckmFRb1wZQQuq1GEA8Iay8OVVlopM5p2R/NmARfgxXAe5ujd5Yd3aeagDLjGjBnjaZYEGC19jk4599xzfeeLeORqU0DAJeDq0nBpaMxt/NntzwZztMuwBQ2dvE6YMMEbkJgwaNQvM3AhNowHHnvsMb9GD82rUZp2930zgCsKLssuu2zd8nCAJEYrxmO1xemMNwwtokHZcHt3ZbZ3hGUt5KOPPup5WeA1g57xOwGXgKvScBEajMuzJgsQaBfQgqlNGLGokN22TRg06pcduKK0vf/++8OBAwfWtZRrhObNAC7KhCbJcCGb7dYDF8AaK0R4jO+SOAQrloX14o7SirDMie2yyy6+wyDgqk1pAZeAywt5BAYN9LTTTvNDFUkbaG3Wau4bQBZmPv744xNPiEeFRq17Adf0eoS2zB+yFCKNMK5F11rPmwVcgAI84/YhDN3WY3XBeNddd02lBRE3QL/kkkt6etUqb/w5bZDO48UXX1zRdpvbktojNQGXgMs3LFbwYwKNSW47aVrWzBBE5N0tGK4rhOLCorv/Ai6j8HQthTVyW2yxRWYabZz2zQIuSmWdHbcZrt/BAkCO58f+u0X2/syspG2DcPAj2lNSy0JLCxq4fTAr6UnzmsGDdifgEnB5y6q11lrLL9ylkbRjQyHPzMNg4tydADLhkNRvFXBZPcR9a7it8MkLAtntruHnYpLSME24ZgKX0fDZZ5/15elu/o6tn2ze177rzodOXCwp6Ml6OMCO0QNojpCW60oBAVfJgQshjwXhyJEj2xKwjJ0REqxpY5gF4ZdGWHYXNi/gMoFEA+S+muO5XfH39j3lrvV9/JtG/5MO6WG9ecIJJ4TspJIlramHZgKX0Za5LkAC4KpVHtqJLUROQkfiZridnXHWXHPNmvF2x3t0wgBVAdfMFC8icHX0XoWuAfg9zzj0cuutt3Z829j+ZG4sPHANyu8r5xqLjy/Nj2uswZAhQ/y+bezLRv7yco79/F6DxM+9OScs/G3ct/fd+RaPE6bBMcccEzjDEh/cnnf3bZJ3DriCCy64IGCvwixpE80fZ2m9/PLL/mA89tHjcmb93qdcnOHFMTH4bjf8YPDgwcEKK6zg/1MGBya+/qk/o2GSsvUkDPnmIn8bb7xx8Mwzz3Spy57EGf3G8p/nXoXR9Lin3bj1U4Eb1vN7NlZrR+TrBz/4gW8n3/72t+NRVP1v9XLLLbdU9jqsFnfVj91D0jzxxBODY489tlLXtcKW7Tm01V6FTdS66LnRsyvKAmS30a9fLElP2jUqJ5OyccRlF3HT+7Q06LEz/s/FvfUoec89YfH5H72q5c/SYJ+9DTfcsNJjdw05E60ra43L8vvqq6+Ge+yxR7jpppuGzJ8stdRSIQtd3Ym//igN6/074eXLAd+gTbL11tJLLx06IRpy5PtvfvOb0B2I6Le/idI4m1qsHovVCftkJjFsSFMXlJcrz50z4qWiTuC30aNHh+68uKp8A/1ZZ+XOM6vwdTyeav+hFXy+0047davRVaMRdFh11VVD16mptJFqaZTxGfWlLZ8yEnLVmC/+rGjAddhhh/lFuwBIVs6Es/lsHOxO5PUbiTpN0y/8dAfteaGL6T37xmHG7nbIDt0O7/4cL3YQoMFbHHHf8mrPGVJhyDNO70b/5wVcd999txfQGMUwnwFQwRtcJryr+cY/fGPfscMJAPjAAw/4joDRxGiUtU/8CGTqyB1p7/PeKJ3teytzs4EL0Iffjj76aM9D5MPyhE/9cGFVmYa+RivmXzk7LhpnvXvSYzj2n//8p4ArxsQCriaCFoxqgqcIGhc9eHcKbEUTivFGj/5ao2begG1vAKgf/ehHXpuo11DtvTth2GshP/3pT8Nf//rX4aWXXhree++9XlBapqzXb+ldffXV/uwkGrvFk4WfB3BRBoAri/xZHAhajADoiLBrg9HF6JW1T/zsXcn6JvIQF/SWr7R+K4AL2hi9AON11lnHg1S0TJYv3lnYJDS1sCwl+P3vf+/rKBpvd/QxWUEbsjwmSbMMYQRcJQQuazhYEqINwQRZOOKhob700kvhXnvtFXKwYxRIrPHX860xE47Gi2ZBXBtttJHvEXMKMsBFWghPQHL//ff3aRHevs/CbxfgsrJC7zXWWCN8/vnnfb1Co7wcWvodd9zREcAFjYyn0FxZxA7fGV3xoS2dg550DKgHdtPgZGS07Gi8te6tnbKFGS7PuvQJtNGPgKuEwGVgwPwIQySNNgi+h5EAEXeIY/jd737XN04DHmuAtRporefR7+0eYbKkW9RJY/7jH//oQXLSpEl+3qdWPI08bzfgom6hlTPgCP/973/nCl7wziuvvOKBshEaR78l71zNHCo0eQ0fczFkyK4X7GMY7QhZu2G9I7xO+ZM64gUYAb111103lYaKVSKOOOSmU0DAVULgQjAwHMfwmzWoRhqE9VSZ3EYzAlxIIyqQsronXnq+pMHamgEDBoTsasCzPNJsN+AyOjM3svbaa1fOT2ukfmt9S72jdWEab+k26lOHXK0ALisnQhEt3ln0eYOYeJkWXnhhb+aeBriIm7ZG3MzjMt+VhF8Js8oqq/isCbishnSQZGYNLs7ctf7Ta0PItnKOi8aw+uqrh6+//rpvTI02CAQYOyqsv/76iRpjLdqkfZ6k4aeNMx6+XYELPkNjOO644ypadaP1PENsTL8zQXzdddd5no7Trif/qVOuVgKXlYsDNbEGjJeDob7LL7+8R50+2grgddlll3mLzKhGF0+H/3TQll9+eQFXjPmkcZVM44oKBsbcaaSNCjR63Qw7AsjVGl87P2tX4ILm1DUm9g899JBv9gjNLB18Q5zMOZJOFvUc5U+3vi0T/uxJmQ28XnvttZCDJAGYKMjAF1b+NPHzDdfUqVP9fJeVtxbtSJMjZXB8JzedAgKuEgIXjWEvZzyRdqijWqOhMY0fP96fkhxt2LUaYrs9b3fgok6wSqOe8gIujHFYi5ZF3Zogb6XGZXwOvaAb6+Tcgu8uw9HMs9ocooVP4xM3oMjp4rU6fEYL9jvECbhmUFjAVULgokEcfPDBviE02hj4/sknn0y9RiULIdeMONoduKDRVltt5ee68gAu6h/NiHVkWdSHCesiABdl48KUnXWGiy22WKWMDOEdddRR/t0McZr8jrpA+F5xxRU19zIE0Lg48NLykjyFzg4p4CopcGWxNsQaE0NRGHtI46ovLKAZLut1XN2BBrtB0LunsWfprP6nTZsWum3DvFAHeLrLS713RQIuoxXlBGhuv/12v8MJZYDXl1tuudBtedUjTYg4qY/33nuvprYKaGGAxHrIrOvOytauvoCrhMDFwmN6cTgTpD1hYBNcTzzxhN+1olGhVU+oteJ9O2tcRi8EIAI2i6HhKJ9Y/X/22WcVI4ZGeaCIwEWZAS4u1q1hEQhNoe+FF15Y0YbStiU0uSjoW32ZDy022GADf6o3acvNoICAq4TAxSJKjlvApW1sM1hn+h3fs5YHk91GhZY12CL57Q5cVicsqs2j106cCGDmTKk3S6+ndcj3XEUYKozzOmWF39GWsfQDvDbbbLMeAxcdCUD/l7/8ZVUtla28rrrqqsw7HPFyteN/AVcJgYvhB44AwWUBXCzYPPTQQ/3wSaOCq6cCL6/vOgW4Ro0aVRGwWQkqeAdNAODac889Ox64KC8XVrS33nqrN9hgU2TbSSOtVgRwWdupxr8ssmf+MI8OR1Y80Kp4BFwlBC4aCTsD4BoFLuKAiTCJrrWzdrVG2S7POgW4bN1gFvVNneNMkLNYFw2JOm2041JkjWt6qaeXG9B57rnn/CJvtC7M22kHaegLAEI7TgmItwfW4HFwJfEVCbiszo0WrfIFXCUELoQDwxNZMSE9TeJiUSVHP3SSkUanANejjz6a+ZATdU7dszHtJptsUhrgQlhTdhx7QrJzC7vGQIs0WhfAxV6hbAFlwEXbYQ76wAMP9HsbWtvyiTXpx+oVcACgyaeBMu/sIm/x903Kos+PjjVpInjBmIyNWw84DaNXYwqG/DDNTQoWgBZhf/azn1UaX7V40zyDkWFshj3OOeccb95L42u0922NuZV+uwMXtGOuBO2AOsrSmYAbO3asPx8si3rKS+MyYRv3G6GHgYo7VNOv6bL/SeK0fHAuGycdQzvKzq4crO0C0NLElyTNWmEsL6QHEDH0i48WyVAle4FSxw8++GB48803h/e6reLYtmrcuHHhW2+95TsuaI58w2Xx1Uovi+fwsoCrZMBFA8F8mQaXFZMRD4wPA//lL3/xB+DRCE0QZSHUWhFHJwAX+zm+7rb3ygu40Do4lyuL+jF+SWOcYTxsPAgfVrui4ey+USFqaaKVcJ/U2XesD7NzuuhQDhw40B9WSV2liS9puvFwpGF5MTCgk8MxQYccckj44x//2G8PhzEKeWMvUvhp0KBBHnCpd4CW44cAtClTplQAN8/8W15tGUYa3oPHCA/tcfBKFo6jwFM5S5gJaDKUVPtIU9iswpK3VmpclIOKW2aZZcIXXnghM+CyCjOBMXnyZM/4nLCcFe1aEU87A5c10K233jq3BcjUN8OQ7jj7TOo5KXCZwI0Lx+jz6D2CDnDBig9tBk0CzSIrZ2kljc/ayamnnlo55gRQwOgDraUZzvIMTTAwYah/m2228SM41taoD0Z0uJBbdtkzOqdRebvffvv5nUagt8nlPMoi4GqitgUzFAW4sCy87bbbKr2tLJnLGgQN8JFHHvEA1r9//0qnwgSqNY4i++0OXPDbaaed5qs3a0FCPSNAMA/n/Kos6rEacJFv0rFhqDivMkTNtmOcMkwvesSIEeGZZ57pD7k89thj/S4xezlzfc7Cwijphhtu8IKa0QHK0ApHuswNAhTUER08Tjq2ttOMPEFThvz+7//+z4+QxOsPkIqCUvx9rf9oZsOGDfOdJdLIwxGvhgqbCF5FAC7rNcGwaYc4kjIhDRCBg0+P7l43jID1FGvISN96cLWYvyjP2xm44DWGoe68887cOigIkLx2h0dr59wr0kA7go8mTpzoz3xjU2fmadlqigNR2YgWgQmAMqcHADLPyj3DWZyhde2114aPP/64n7Mx3kzKz1mHo10wQkR+F1hggQpoZd256C7fpMUc1cMPP+wvDEwA/J133tkPA0I7G+43v167tE4pO+mcccYZvu7yAGMBVxNBi0ovAnBZr5Zdr9lyBibIwxl40UBIg+EZesUAJpuyzjfffJU5MGP4eg2j2e/bFbigJ8Jmn3328fOOeQkPtB327MuqXow3hw4d6he2s+MHQ1isE+N8MQwZAGNGDGhLdICiw1WAFWF22203Dwx8j3BGW+OCDw20oEmzndUDIHzAAQf4uSIMHlqRJ2uf0MToQwcBTRCjETYXxiQfi1E2FYbeVj/16pvOKeeW0VkwmmdJa+KUxtVE8CoCcMF0BhQjR470jAUj5OloJNY4uGerG7bLwRS4b9++mQm+eg0q7ft2BS4EOidRv/322xWhmHX9oq0zN7LiiitmXn9oUFtuuWVl/od6M5BCKMYFKM/Ywf2YY47xw4YmlM1CzoAhaxqkjY98cQEMDBMyXE+74FmrndEMWUDdQjvL77PPPuu39WLEJGkboo6oE1ugnWUZBVxNBC0qvCjAZcy36qqrVjZgzZKxumuE1hgIw5lgjO3Ta8dgxPJlwGr/W+W3I3BBO7QQ5nryFNgIXARvHESaWVcAFkPQWLK++eabnu2Mv5rFz93xevyd5Q1t4eWXX64AQzxclv8tzZ7Ead/iU99ohxwYa52HenVNODb0BgThxaycgKvkwMWQy1lnneUbUJaMlYRBo0KVRsG5Tuedd15lBw6Ynl52vcaR5/t2Ay5oBj3+8Ic/+PmhvOoUQUavnLmmvICrXueFoWaOBUF7NxflKXtWRB/64czPMo/EaVqTzRE2Gj9xWl5Z17Xhhht68ErS9hhmRMOEX7JyAq6SAxeCbvXVV/c7AMAMzXY0BoQNF+kz9k9PlLH1DdzO2LYTd17CsV7DaxfgQpPnYl4hb9CCR6gvzMo33njjyrBzPVpm9Z5yzj333OEFF1xQGeaGd0ywNpuHe5JeFAiSfG/ho+3F2o350MAuLCYxZGFNFscOYXWZBX1Ii04m1ojMkSet0+HDh2fakaKcmuNqIngVbagQxgMUmIDFeKLVjoYRHVa45ZZbwsGDB1fmOur1wpM2pKTh2gW4oAvWc5iDm3DLsy6ppzfeeMNb8vXq1SuxAEtK9+7CUdall146ZN4l6shTVMBH37XDfTTvdk+ZuOo5jGQwQgGoGM5jQTAdP4xVWESMlpQknnrp2Hu0JwxfiL+7urJ3zFcCNFlpXQKuJoIWlVhU4GJIjjUv9KayZHBj9LR+VPiyGp8e2zrrrFOxbLIGkbdfROBCcBuAw08YRxx//PHh2LFjK4I7Lb3ThKducIcddljFui/veojHD7/u5dZmXX/99b7cdHbiznjIhL/5BgrN9i39uG/5iOc/+h9gmjBhQvj000+Hd911l7fWO//88/1aNXa4wNCDjguaqNEKoyfW8NluFtH4Gr0HOIiX07VJz/jR0o768CgbcDOS0snA9f8AAAD//18BUvcAAEAASURBVO2dCdxtVVn/lwoqmMl1AkS496oIKWKSoHgrLwQaNAAiJJghpIaEpqERWo4ZDjmkksYgDlgEkliIYinOmoQIQUzKZR7ECRQFTPf/+T5/f4d1N/u879nn7HPOOuc86/NZZ+29zhqf9aznt581pqql+dnPfuYxPvKRj1Qppeqe97ynuzyXZinbve51r+r000+vKLfK3rLKveD/+I//WG2wwQYj1/ke97hHtfHGG1cf+tCHqv/7v/+r7rjjjl4e03z4+c9/XmGh0zXXXFP93d/9nZeT8mLH3b7PfOYzq5tvvnnkdhINqQvmP//zP3u8eu9737vCbrjhhm5pTz3j6v+8vvDRmjVrqhNPPLG6/PLLvc1EK+U1Dlc8+9WvfrV66EMfOpE26NfG0OP+979/9ZjHPKbaeeedq/3226961ateVZ188snV17/+9epHP/qR847oMqqruuOOmlYen7524403Vpdcckn1la98pTrzzDOrD3zgA9XrXve66nnPe1719Kc/vXrSk55UbbfddtXq1aud7ve73/1cjuQ8AZ0kCzbZZBNP4yc/+UmvrF3yg2jwrne9y2VPvRx5m8GrlOcTn/iE9yPqPqpBRn3729+u9tprr9YyQGX92Mc+5sWgLl2Ye5CIVXxgY4RIRpx02mmnJRM0/oxfiYZyGuG8rL/3e7/nRcRvWHPsscemP/3TP03Ut4s6b7rppulv//Zv07Of/exkncBpSXmnaWAH2TvvvDN97WtfS6985SvdNabrpN796gc/vec970kPfOADnRb9wg3qL9Y2sEkmZNMNN9yQfvCDHyQTXom6qD6Esw8cbwMDr4SlDCa80q/+6q+mbbbZJm211Vbp4Q9/uNefNpIdtCxtw6kNfvzjH6fnP//56ZRTTum1S9u0ughPfSkTLn0I/odOBmbpl37pl9zdaKON0n3uc5903/veN9mHWfrlX/7lniUc74QlHvQWzUlP73Lxo09gfvrTnyZ4UdYEqT/n/nrG/eEPf5huvfXWnjVASbfffvt66RBOcUgXOsMXuXwQ/8ilbDLQ4UEPelBau3Zt+vM///P0hCc8weswDr6A1qR79tlnJ/tgSN/73vdUjLu5lB/6v/nNb06HHXaY/0/cUQz9hDzhQwOgVkmRN/Qj3u///u873+Q0bpVYHtgSbWWsEh4+NK7RNUy+2B7wgAdUf//3f19ZxxnL11qrxv1FYOsoXha+tLBoX3yN8uVpvDM2Ow6Ni7rAs3xp80V82223Vbfccot/dV9xxRXVhRdeWJ1//vnVt771reo73/mOaw6EIawJtF5cPYs2w9C1TRyV24SVf/WPk+7Dpm1CyTUR+BhN1UDLtVcT8M4j/G9Cyi1+hDPQWs9Kw81d0qnb/P88DdKUJQ8seZI39cLlf6VHOsRXHNx6nDo9SEPp8d+KFSuq3XbbrfrkJz/pfAVvwWO02TiM0v7iF79Y2cfukv2PuhtwVUcffXRn8qREjQs0bGUCuEYfKsw7BozGsOGb3vQmF5aTEoyDNroEKJ3zne9851iFaNfApTqqDgJiCYK6oOkXTulM0qWs9pVb/dEf/dGSgirnpRKfJfT7uQK2Nm6/tOr+XdIDsHvUox5VPfe5z60++tGP+ocm/EA71fmoaz4Rv37qU5/yD92l6gUNAOdXvOIVAVx5QwRwdQtcYkIbZqlMla7WrVvnDGfDGGPvEHm7LvUsgU6ZzjjjDP/iRNCo7F254wKupepW4n/0MTS8k046yTWFrujbL53HPe5x1b777lvZMF6vTdFExtHG/cowTX+EvTRC6p2XxYaHqxe+8IU+T37xxRev93E5bsASbwq4jj/+eC8n5c3LmD/zHxoXH8KUr4syhsY1xmGmvPH0TMeDIUtbnKHy1V2Ybscdd/Ty8rUNUIhpxcTTdFUWJlpXrlzZuWAL4Kpc0EDnz3/+89W2227bOY1znoPfsPvss0/1zW9+szrvvPMqFiDtueee1SMf+UgfGqYP5cNpxFc83Dy90p7zctafJRuQD1gWNNg8pi/K2H333auXvexlvnCDRRw2X+b9kHaR7QIQBu3LAIfNzfrHhejfj9bUi6FMFmcEcGUUpuEwMcc1nrkeOhFzSbYIxOddxHzQfZKdJWvy3qPKwrChLc7xYUM6Sr9O1NZ/0YFLbXzuuedWj3jEIxww2tKwTXgJc4CLVWO0K5qeLW6oLrvssuqtb31rtffee1c77bSTD5PZghUX8kvlAT/IKn25S8Ub5D+lI1f5tOFB5rpsUYV/eLFycNddd61e/OIXVyfailHmOr/73e86UNliDgcpaKLhQPF/r0NM4IE8aZOzzjprIH5Afmy22WYV2iHxupAZJWpcsarQesygputVhf3yNebzFW+mfaVDDz00/e7v/m56yEMe4sGt0/aLNjF/6wye1wknnOArqmwpdCd5G3B1uqqwk0JNKBGTgZ4TKyAPPPDAZODlK8nkP45iiJcMnJINQyX7Uu+tXOQ/AwTPltV3BmTJtDJ3bTjbV2jedNNNyQDPV/GZgPeVeyYsPY1xlHepNG0OKtncjltW1dnHXzItqmdZAWhbCtLDHvawtPnmm7u7xRZbJBPyvXpCa/t48GxUf9FoqbzH+R+0Z0Xfc57znGTbOgairQ37JtOcky386q3MHKWM0KS0VYUBXC1adFLAlReJTmhzEOnggw9OhxxyiC8lBjgQKnSqaXQsOjhlALBe+tKXJvta7UTILipwQU8EFEBgk/++7HmcgCX+Eu/kwMV/8lcZ6u+EYYm5rc50gcZScgCLJedY+AJBx9aD73//+z3LO2GVHq4sadZ5On8HmAAiltQjkPNn/EyTcgt48czSfJbeY1maT3zlS156Vh1zP55LMJSNfnbqqaemP/7jP3aa5+VtKiPywvampd/4jd/oLc9vCtfGr0TgilWFxgmDmq42IBvTDDy8Zh3M5xQYPtxll118wp5l3Cyf1xyYhpgGrUcX4ciT/K+88srK9jp1MhezaEOFJpR8OIqhGJbl217DgfmiDQ/1CyveYqiQITLKg60b+dPm2HzoTH51V3VjWwFzRGw1sH10vrXi2muvrXJ73XXXVbLXX399lVviYA3UfZUlw5gM49XL1JS/wqgseRj9V69rKe8qMxveGaqtLxqptyltyTChfdz6lg7aqCtT4lBhAFeL1p0GcMGgMKV9fbrLxOv222/vp1pccMEF661yomNO0qjzf+Yzn/F5A8pY71Bt3hcJuGgr6Mc8BAsxOK2BJde0dRuajRJ2UOBq4im1vdwcFOrPCD4sHzptreLmrtInbz3nrsqUu011KNVP5Qaw+VgdhC9oy8c+9rG+wEbxu6oftC/t5IwArhatOy3gyoUTX1UCiC233LL6y7/8y+rTn/60b6oVw+JOwig/NvTuv//+LnBHEbyLAlyiG5qIzRM66AtE8rYe97PyXE7jWo6XVJ9J8d1y5Zn1/wFhtEpWNqqNluIFwrDghOO3aAPid2kCuFoMkS3VUIP+h4BH0M/KcvhB65WHg2kf/OAH+xlrCEGGZjAwW9cM3K8z0FnYc8RZdpQnL1+b53kHLtqDdoFeZ9uJGLboprL5maHp1Ya2TWElFIcBLuqB9iSw4oscDYE6yq8fv4R/fwpAU/rwe9/73vX21TW1H37IN4GWeKt/6sP9Q7qhcU0QvBYFuMTUAAfj4e94xzuq+jzYOIUJabPPhP0/dCSVp607b8AFXRDkWIYEmZe89NJLqz/7sz+rbGVbT3NuS6euwrcFLuojwKK9OSbLzlD0Dbrs7aN+4+Sz4cRuN7GoV27HAdDQFj4BtJgSWKqdaTv6GkdA8dHIsn3KNA4TwDVB0KLRFwG4xNwwsurLVzzj3a9//et9P07e4cbB2KQPc7/73e8e6TzDeQAuaIEAgR56RqiwN+uNb3yjz09yJA9ChzZT+03DbQNc4iGGsDitnn2Gj370ox2AX/va1/qHC2Fm3aieakPaESugUpvqvYv6Kk00rfe9732VLdPvuxhD/Rx+eeITn1h9/OMf92FF8VsX5amnQdqhcU0QvBDkrMb5t3/7N2c8mG0Uw5cQ6ZHuNATNoHkiFLUKieN8+BqmU6hTjkKDprjqeBdddJFvVB20nPVwswpcomvu0tk5/eQLX/hC9Vd/9VeV7R9ynoF3SuGfQYFL9UJ4vf3tb6/YiEzbAcCc9MLKt3zYsIlHSvRTvXKXcuodeYGlLQFs2nOdHcn2jW98o2JBEqeNKOyw9VN86HeibYJmg/Ry/MEKY4Z36W/EJ+44TQDXBEFLQpFzuzjFWUw4SgO/7W1v8y/l5RhLeZfiImg4HLSLjtZEPzoPQxy2Z8dXxw1b71kALgkaCTTc3DBchlCzqy6q3/zN3xzrocTD0lnxBgEu6kedEZKscAOs8vjMr3KvHGEQcFjFwW+aJm8rtZfK2FQ2/AAnVutyTxeLsf76r//al5hzjijtucMOO1Qr7bizgw46yId9Vddh60m/4TYCbohY6s412gq6P+UpT/GhQcqp+g2b96DxArimAFx8nXCRYBeN/JrXvGYmgQuGB2zRvgBxOsuoHa7O9Hz1IbRf8IIX9ASbBNyg7riAi7ryxYxl2I76YymzBJlc/LAKg0scLPH1P8KGeR60ELQq5hX/8A//0AXbUgJoUFpMItxywEWfEV3+5E/+xNtVAjQvH+Bl98r54gxWmEIn4kGrnOa84097yKpftnEVF1fly9tM7UXb8T/vtBerOBH4XFbKkUic53fMMcdURxxxhGswv/Zrv1bZ3WsVq3VZ8MBHr+orF7+DDLTYa0aZhzGqK+WDh17+8pd7XjlN9czICcvhmfP6m7/5G98Hp/jD5t+2zNCwtKHCuT45wxrfd9nbUKHvJOfdGBBnKGPLU5MNlXhcY5qh0phWJOqN5Ygb66zJbjP142MM0DopEvSwDpFsSW4yAe558d7GGHCN5cgnE1bJhnf8BAVOVeB0AayeOW2B8lsHdWtCsPHZhHCyjbR+7JFtGE6mhSTbuJtMKPppEbjQk3qr7nLb0GFSYdUXljo5A7pgn/GMZ/iJDHndVE7qDD25GHXVqlXpyU9+srvwGidc6AQLXC6U5Dim3LShkfiYOCb43Row9Z7xo510maTddpyuvvrqZHfKJdv07KeT0E6EIZ5c2px6kL7qqHIpT+p35JFHOn9zeofC53VZ7llpE26dHZ111FFHJZun6p2KoTZROlxe+rSnPc0vsLU5RaezylMPqzhdu/aBEEc+dU3U5dLjjD+AyzZ4etBhGhtmI559dfqZbjnzLZd/af/bF1yyk7+THZKc7Bp273xdlFE0QaA//vGP7wmANml3DVxqN9My0x577OF1RXBybl1uEa4IPNMY3SLYeMaVtTlCv1EXcJOBJ6AnRgKePGfFqC/0Ay7qQX0JZ0NmyRaX9AC5XkeEOLQAAOo04Egm02L8BulVBmzcJg39OYYJy4cDLmnI2jytH1nEO4b2AWgESKap+JFTHDvFs95Nq/KPCz4o6uUgHaXLf1jaDaN3f2n4sUOP07ve9S7nIwS52r0haF8v5YFrw5HJDvdNdjmkl4k0ZUgbGu28887JRjD8o5t2EG3Ubgo/brdE4KLBWhmrhIefhdPhrUF95dP//u//jjRUaMztdX7Ws5410IZA8i3ZGuNX9gXtx+60avwlAkMjEy7VVVdd1XdIaTmadD1UqHZjgzZ1xi5XhuX+7yqd5fKZxP+qy1L7uKAhfZ6hMS61ZI7LBOiSdFS6ctvWhfRNePtCBS5ZxfLeJh3lLXfQuPXw5P07v/M71TnnnOMyBFqIr5boDo1/Gfh4H2FOcOutt/b6UFfypHwszPit3/qt6j3veY+fVM8QJ2aUPBsL0tKTcpc2VDi3wCVmWLNmjV/TDrMNy3CKx4ZRGExpD9oZSgvHqkPG6rnJFaP6teTnuwUHuGxoZqCNk000GSdwNeW36H4S0ksBlxoZHmGOiAUL7BcESJh7WQ7ESqYx9acvUA9c6gIwMy/+67/+637jNysIR1kIAd2wzMEBRMyFMn9GXsobeu63334VNxxzpqPiyFUbTMsN4JqgJqJOaXM5Iy8Fh4EwT33qU1t99ZXaaekw2Fe+8pVeL9XPX0b4AbiY+OYSwmHqHsA1WU1dfWRQ4OLLnwU4rDA8/PDDKxsS9o8UaQ2kp+dh2r/rOKofZVK56n7cXcUh0TaU7Nfdc8oO9eMUEPgZoS2NZ5h+QlwshyizcMmGpX07wROe8ITq2c9+dvXBD36wYkQIwCIvrABrmPxG6L59owZwTQG4uCQOBoB5hjViIPas0AG67mCTTk+dGIGFUf2GpY/i0dH5OrXJ+aFoFMBVLnCpjRFitDM8Q1vbvI8PpXF7MB9DAIP4WSCR++m/cbj98pM/5WNzvs3tVr/927/tZwH++7//+3oaFfVCM6KOAizVva1LWuyfZFUzJ/+zlJ7T29///vevdxo/eaGRddUP25ZzufAlAtfcrio04eyXL9pOdJ9QtcbxyU3rMK0NcY35fTEDl+kxAT3LhrpQJ9Mg02c/+1l/xm9UYwzuCxhMKCSbE2i9QMOAq9NVhWo321eVbO5g1OrNXXy1+VKLM/pV2oSsty9p0B++/vWve5vrskkuxFxnq+ZM+PdLYmz+lIlVf1wUiWVlHotDWOXIu80vJRZbsCgEA5/k9RFdRi0g6XIf2Ze+9CVfTWmn2fQuhFWeyClMV3mOWuam+LQhK3Of//znJzvMoClIXz/qRV2JZ3vhnM6qc99Ig/xhibYy0lxKX5zBGDwbBvV12KqSWWB9BbF5l6NYGA83us60NWby8rOhFKM6ZtUe6hFac28S5/ANQ6PQuCbLV/ABdpChwn4MAe/k/IN8sIskfaiNITCGwkzg+cZZ+s8wfLFcHOaMdt111+olL3mJH5n0ta99ze+Jgxe5vwuNocnUy94UZlS/et6TyHPUMtfjh8ZlHDgJA6KzZ+R1r3tdetGLXtT7Mhwmb2M0j2/qfbKO4cujR/mK5AsEY8wxTHE6iQN9yN+uIvF9VzyrXMNmQBpoXNziu3Llyt4y4zbphcbVhlqjh1WbD6Nx1XOn/cVHelYYthSwnYDl7Fi2GrCMnT1WtlrRl6/bR09v7xx8JEtfoy+zpB4tqu7aqTC9W4656RiLUVl4Vj3xy9/l755j/FG+ed5jzK7zpGmD0LgmoK0YQ1Z2dXVvwtMYZ2jDFySGsWkT+OuN4RuHDP0FSRlHiT9KXMb6qctr7CQQTP7F7B5D/JAGtDr//PO9XsPULzSu4flpGH6gjbCjaFzLsQo8oRV1zB3Zhl+fQ+qC50ib9JQm+aAddJH2cvVapP+haSyHH0HYD9o5GTo444wzvIMIeIZhNDoAjcYEK6uAhhHGeZk5aNW0QF/F1HZfSp7OqM+Aln29+snS0KWLjk4aWCaiKd8wtArgmj/gaup34hX6JpY+NohVeLlKpymP8OuOAgFcLUALraC+Smkpga2wzK9wGjxfXzD4KEYd47LLLvP5rWGEcV5mNjBzNhlLbY899tjKTvVwIa+65mHH+Ux+HLrLXASGeo5qYG5ozt1AlH0YWgVwLQZwjcprEX+yFAjgWga42KXOVfSvetWrfKjPVv5UG220kQtBCXdcNAZZ3hGS7MdgLwanJGhBxqgCGeAjDZbMoqEMI4xzIc6OeLQ3GIFhEy7i45oIW93nB3uqTuTD87D59QM90kPTY1HGJZdc4uXoqgsAWjaXUekw1n5lWMo/gGu2gYu+Am9j6Tu4o/bBrvhzlHSoAzbX9EZJb9bi0o4xVLgEeKGBfO5zn/MxazQTW0ZaveENb/D5JU6tYDf7dttt53c+bbvttv68du1a//+0005zbUaaVhcdRh3vzW9+cyvtry6cAQzseeed58yvTgDAYqkru+bRgn7lV37FNZY8jVFBjPhKb/vtt/eLANUJu+hE1Ae6s4mSy+2UV1s3gGt2gUsfefAClg8zO9TWeZv3WTAqu0CX/o+t121W6tMVzQO4lgAtBLutRvO7cCAUglCMJJehLbQUjmFhqS3PfOXrf8XposFIE4ZlOS2bB9sK4Xr4VatW3W2xiPJQuXlHE2JT56GHHtq7z0laZT3NQd8BLq7asBWWfp2D8u2CTqRBeljuodKFiYOWLQ8XwDV7wKW2h4e5KuREuwyRRT+ca3iQXf9hJ7MXq3mp7HJzXhZ4US+OurryyiurL3/5y36TNR+bi2QCuJYBLq6b1z03Yqa6W2eY5f6vhx/0nXRhWrQ+W447NHBJ22J+C5ClQ9RNXgf9R+dAPUcYMGcH6EAfhk5zYb/cM3dwcWU8l+Ox+kp5KZ8uXHVybvodZZ9bANfsARdCjTnbww47zD88OSgWnuRjCZ7liCj60SSMeBt+FE9SPn0IUw76FS5h64b+8T//8z8Vozf0mec973k+jE8fWr16dbXbbrv5qEkA1+B8ivyDH7iFHdMk/+rtMMh7MSdnWAWTHamUzj777GTC2ep61/4Lf/nFj1Uqf+3t0VjPs4MXI7Dv2eI6h3e+851Dp2jakpfxLW95i19jQD2x/Qz1wxJGdeVZe1/YB8O+GK5tMIHRu2OI8hpo+B1TXOXC1SWcGMCzXfTnVycoX7n9ytDWn3JyrcSBBx6Y/uM//mPo0xIMuOLkjLbEHyG8+GCYfVzi0w984APp9a9/fbruuut6V5oYaPkpNaQL33Nihc2t9viZIivvQYuvvtAvPOmRL/3AgGVJawDl+8fsJoNkmpSf8MGeMvaWsd+M/7H0NfLl/rB99903veIVr0iPetSjPJ+25e9X7lnwh6al7eMqCrh23333xN1J9jXkgnaajWpfZcm+vtLTn/50B4nlOk6/stKZuLCQO8F07NAgTF/PD5pg8Sc+gMizfU16Z5W//kNQKLwECWUcJO9+dennT94c6cLdQQAq+Q5jAriGodrwccQLbYGL9sZwnJHdGuwfUICF/FUijlSy02uSLQZKprH4BmI+rposcRGQ4nNc3uVXd/U/Ln0AkOGuLsCHciFo+ZjC8o61qYZemvRv4smqj1AOLLThP0DXhu3TS1/6Ut/cTDj+E+1U13l2oX1pwEUjtTJWCQ/f5ZFPxgS+eIHTk40RO1MnW1UsC0wZGA5grskY0oc9cIex1I2rwBmqI11sF0Z0ss7lQx8Mf/AsSzt1lVe/8qo+JhQqO4fM25D6DkMn4sRQ4XA8Niy91e/abkAWj3FFByuB++1JbOIF/BhOZJWu3Sjsw4t2s6/fm2fg5n2FeVLmZO1UDA/HNSPEYa63XlfVoSmvelgDHS8r5SUtLH5NcfE3UParf9S3xt2f+vWzafvT3rGqsAEAYBLmbhhXxggcp9Vg5G9fbtVOO+3Ut1PWO0XTuzoVl8NxbpoE/bTq1XW+0Al7yimn9K63aKLDoH4BXLMDXHzYsYAIEKD/DtrGpYejz1If5reuueYa5+9FBSzJiwCuBtCCkfny4bSLf/7nf3ZaTYtRyBdBzErC5zznOSN3SnUCDhkl3WnVSwzYpUtd+BJlyTNbE2jHpi/XNoIqgGt2gIu25xQYLiTtp3G1aftphNWHpbQvtMdtttmmOtFWRvLhCo/Ldtl3Zi2tAK4+wAXjM5z21a9+1dt0GgKePDUE8u53v3ugK8qX62x0DFbZve1tb5u7DsAXN6skjzjiiE5AC1oGcM0GcEmY24IMX20HnyP8R/1wWa4/DfO/wAktSkODSkflZYjS5vn8MABOyYG3kQXTkEMlgloAVx/gQrjz1c44KmYaDEOeaEXsEbOVQ50MfdBZVtn+LbvzqkR+HLpM0Apm/td//dfesVUSBqO4AVyzAVzqo/AB15YwR0UfVtsLEPQ+KVcgJVf58g5o8YHMlASn7HDr8Z577lmxheOLX/xib6uIPl6H7hxzGDGAawngYiJ0msNpfGVx59aTnvSkXgcU4w/r0lG4E4yhx2mA8bj6EO3E4hwm17sUUgFcswNcAi9OyLj00kurY445plqzZo0v1mjqLwKTUdymdJfyu//97++HYx9wwAHVq1/96urDH/5w9fnPf95vMFi3bp3ffCyZQ/+UHVe/mdV0SwSuIpbDm2aSbHOfL4U3RpzYUlNjJF/6agyb7BSOdPjhhyc73ZwidGLsKy9Zp0nsdcFQz1k1ohXl/8pXvuL1ssnrTqtjwBX7uDql6NKJGYh4gKbl8LS3jMLpPXcVzgCgtxTdTrVJdrxZYp+UzYEm+IR9UTkPKV7u5s/Kgz5Ev8GyjJ77uDbZZJP17uXiXX66r4u9i1j2hNo8nLuk1c8sVcd+cRbFn7YtbTn81IELhsHaYohkk6LOC+NmIjoIYIWhUewQ3XTkkUcmO57GN1H6Hx38sHHRvvR8D4g6XwfJTjwJaCWhYmdJ+hXebNzET/5dFCqAqwsqDp6G+tlee+2V7LaCtGLFil7kXMgrXO/P7EHtj6s+Ba+zr8oWcPheKLnil7pLcnU/3snXRi3cUp4cxJqe5Ue8nGd5l82K3nvkvzD9KVAicMEwrYxVwsN3tY/LmNz3aKDKG7P1hgt57tKQXm5Rf22zbMVeFPaMGPN2OuxlbFDZF191+umn+3wQdOu6Tl3Sp19alJmysxCDVZ92GocPpUIv6tiljaHCbum5XNuI5+1UCD9Hk2E/04z8gFxcVtbRR+grgxrxC3FYecgQfJ4uz1j8ZQmHJQ5WfQW3Kb7i4ebxFFfxBy1z6eEkt6ZVTuga+7hqwk7A9Rd/8Rd+mKUap2shnze+qb1+H9ZaO1meydrlOviw/zNhzQWUrCrkBPi8DKrnLLgXXXRRZcc5VfZFPjZaQeMArskCl/iaMzDpf5wteJAdjGunRFTHHXdc9V//9V8Vm8sRXOMy6hNLuePKO9IdjAIBXDXQUsfBZQ/FKluBd8ghh/jNvGzYZVGDvtr0lcU7X1R1C+PnfhA7j8PJ8nw1cBrGYx7zGN9/kuc/zmcAjOs+PvrRj7ogyL8U9XVI+adtJDwoE1/FaFmnnnpqxb1o49Cw6jQP4JoOcHFCxX777Vf9wz/8Q/Xf//3fvvGWK2rQukrgy2n3i2nlr/7INiFkl2TFpMtTInBNfY7LhJcbE4w+Ds34uK0G8vF201bSU57yFD8s1o6IcT8mYa2j+eQs49/Ew1gj984146BMa2g/Q+3mm29OV1xxRTKtIRkD+OGa/G+N3+n8jBeizw9lJD/KbV+3iTkFzngzAE228drroPIQFhqoXn2S7NQb2mHJl3Jw3iDnNP7TP/1TMrD1897wH7eJOa5xU3j99MVjdlyXHyStw3DhBf4TL64fK94mRQHJBPuYSK997WvThz70od48pNpuEmUxwIzFGcsRmgZhkpVGg2AyCFVOOt9qq63SypUr0xZbbOEriUwDW28SmDgcrGkbCR2sWM0kQ7qYPF39NwkXoCVv6gYA77rrrulpT3tasqOlku2F8cN4qSeWcGJOuXkZm/zy//PnJtBRp1A69lXli1PsGhdfrMKCFWgLzfhvEiaAaxJUvisPtT0fUu9973t9FR68J/+7QsbTJCmg/qqPST4g7fQdB65nPOMZLj9op0kZZFFpqwohQitjlfDwXS3OMOL3nTexDuTnhpnwHHqoyhq470GaS+U9zv8ok9Jnrxe3HnPQ6VFHHVX9y7/8S3X55ZdXphWuNzRgTNybI+O5jcnjEo932hHLfUlnnHFGxbFUDGeqbNAeq3JOwo2hwv59YRz0Vxu3PWS3De9F2PYUyPsrJ3lw8zv90q5Y8j7L0N0kTYlDhUUD1zg6a+lp6uRsTiMATJhj4mgd5vuYcwLQmH/SXB9MJSswkit/5tSIp3k+06b8xAC7ssVPEeC8uRLowuo2xvIpd955m54H6bjEw3z6058uon4l0DgvQwDXIFw0njB1nqbP0qex9Ff6KgtkdKM4bXX00UcHcP2iOYqZ47IOFcYoYAzq1trHh+ls0YpvnuROL7uJOdlpFWnzzTf3e4KMqX34FMIxrGcCv+fqGX/uImLolLk+hlEZPmWezzpILy/ym7bZf//9fciKTaTQITd6p5yyTf/nfjwT72y7nJQN7mHWp4Bo2rQBef2Q8TYqBdS/DLDWG+rDn3ZgXpl9pOyPtA+t9JnPfMYv56SvGqglu4U52c3MfkEsZVHbjVquQeKTf2lDhQFcg7TclMLY8IDPd+HC4DAQjD+sIR3m2ZQWLrYUw6WDtizbwZgTDwBruZx+wDt1wNBx652337sd85PWrl3r8eLnLgqIXgFcd9Fk2KemfpT3L541d88zH5SAlB2XlS655JJ0zjnn+Ik0119/vReBfgqvE45FXG9961t9Ppw/1W7DlrVtvACuthSL8HejgJi27tYD1jtS3onqYUt5B5xYZSmwAqgEWPVn3jkCiLBYNFNOKtGzNFX8LrzwwnTYYYeVUs1iyiEeCuAavUnq/Q3a4icNCwBCo7JDvN3auah+zBwuNzNjCC9wIx68y8KZl7zkJYkV1gCZPtxGL/HgKZQIXBCrlbFKePhJLM6gLcMGDQblARMWvcU87J2zq+N9v56BXPBRQ1+CXljmFtmUb8LS5xdNyLpLX8fiH+b/UwBaQBPNH0MrycScRszVnnXWWdWb3vSm6g/+4A/8xgkDor53l+W8C79zcAEHApP+oGZc7URdqY+BaOt+RL2oz8c+9jGvRhOtBq1fHi6GCo2qYWaHAtYReoU1Ru496yH/X364TWHz/xf5mTlTtmbY6ta0evVq32/InkO0X1z2UJpQ7A1Rica40JX/MPLPn5v8PPAEf/K2b3qWH2VFo9E7RdRz7t56660+J8W8D/PHtlk7rVu3LqE9MfzHcJ8tpvLzGplHtsVUvXRUbfLCiq6kD/3tIsv03Oc+1/evcnakwuE2GeIpDfJhxKFrY2ATc1xdEzXSCwoEBUanAIJRQ1E8IzS33nrrZHfT+YIA9k9qMRAHBOgUduZiljMSroQTADQJ4rqf3hVnkHzqYYhLOgzBDWIQ0rZ614fvACiG8QAhrBZQcJOEbVnxoT7CqH4ACM+an9I7fioHZZE/5WE40K5ScqCy00uS3UvoZSUMZSa86FAvP2H4j4VWdqdY2nHHHXsblOthR3kP4BqFehE3KBAUGBsFJCAlJBFWGL3zjObFIQACLd6xrHbFop0BeFiesWy0Z76R+Ugs4Ki8SBOjPPq5hEHw103ulz/n4fFH6xEA2cHBvrIWTYkVtrKAFRYgAqTkCrRwWakro/wEiLzLKkzdJSygxnUrj3/84/3gAU7Q2XnnnZ1m1B+6N9Gonpby4soYu7E92RF5veuTRMd6nGHfA7iGpVzECwoEBYqnAAIX4SwBrWdchCkW8ELLkNWiGrm5P36kycIGLACUu/mz/svDAkQIdMAJ7QQBjAWA9Iw/tisj0MDN0121apUvtLDN3q5VUU+G9aCNQJAyKP5S5aHs0OXjH/+4X8eEJmi3kTsADprGUunX/yO/WA5fp0q8BwWCAnNHgaUEcC6oVXHCI4yxPOud/6VdDPJcT7upHPUwKsNSrspEGJ5Vptyfla7MC6KVolVtueWWyU6j8aFAngErVskSt16u+nteFgBQZQZ0L7jggmSbk9Mpp5zil3eyYvYNb3iDn/EKEHZtAri6pmikFxQICoxMAYRm/uUvISnhPHIGSyRQF9j5u55VnqZk+v3Xz78pDfmRnyx+PCO0+6XFMKndT+dnp3J+KueNMkfFQdoMl0LTfL5LwKz8lEf+nj9LGxQYnXvuuenMM89MH/7wh/0wAcplx0Glk046yQ8kIJxolqcz6nMA16gUjPhBgaBA5xRAoDKEhyDE6gtf72RYF4j8N2umXgfKn9eD/wUucjV3x8n5WE6usYtnff4OLQrAWm0rMRnWlCEdhD1GaTblrfC5q/LIZbjT7kVLdp6oDw1y+o3MDjvs4JrX9ttv7/kMmofiD+oGcA1KqQgXFAgKjJ0CEnQshT/iiCN8ddq1117r1wHdcMMNvqwb98Ybb/Q5jnzOpm3hlFceT8I59xv0uav0GN5jWA8LKD3ykY90zYnVlFiAy/YDOrDjYtGi8vyb6pH/P2id6ulwpRBDgKxi1OpFpbtmzZr0wQ9+0IFTfnIHzW/QcAFcg1IqwgUFggJjp4AEHVdlMGfCCkCElBYv4OqZPULas8S+JRY9YLn3jpV6+eIIPUvrQCBjNfQlFz/C1P9TeLQeyijtR27dT++4ekYDylc4MveUr3bUikgtkCBtAAnNE3DS8NwgjUCegxrqhpGrZ95ZRMIeMO7fOuGEE/xOPFYzYigfhnkyrkKyW9V9Dg2/NvkTvq0J4GpLsQgfFAgKjI0CEngc+QRwIdgxEqq4esZfcygCntztF0/xlVbdJQ0BpACPd/wBEYGJXJWBsvezlIX/moBO/pRDwEp4TJ6e3v2Phh/CDmpUZ+qEESjizx4s5q7OP//89LnPfc4tw4McriuwIg5l5dinF7zgBemAAw7woUlogmlTFo/Q8ieAqyXBInhQICgwPgpI4A16VqEEMC6m7jaVVGH4T/nh5rYpXj8/pScQ0LvcPJ/8Oc9b/vLrl9cg/nm+eXj54wJAAmg0V7QqbmS/+OKLHbC+/OUv+/CsyqXwxAXkmFt71rOelQ4++GBf/KE0uyh/XuZ+zyUCF8zXylglPHycVRhnCBqjI8HCzigNTPD5WYWTvEjSBPiyd621CdNKeI0hcL2sygJ/ZKVpj5UBVXXyySdXhx56aGULKSq7vb2yTdyVgVKv79AW9b5EuCOPPLKyg3kr08DWo5vymYRLHeKswn6wHv5BgaDARCmgL/alNC4TjF4mXNm8kEoj91vqeanw+X/Kt21ag8RTmoOEVRhcyodFA2E4k83OaFAM69lN4v7MYhZW/rGggvMLebaLYP1/hgWVjsqAq3TRrtgDxlFbBx54YNpjjz18BSNDpgrnDxP+KVHjikN2J8wEkV1QoBQKCCj6ARdCFsucC8NbsiwiYPEDZxbiYrWggWEuBDCunpmL4RmX//pZ/a+4y9GJsplm42XEHcYqDcVlng0QAmRwZXmX1fFRrPS7+eabHZhYpAKIAWiyCHxMvtWA/3LDvCJAxWpGDtndfffd/aBdFmFAB4EacdReefxJPAdwTYLKkUdQICgwEAUkCJcCLhJCYKNBcPI5d0qhVWB5ZmUhwhuBrMUUgBjLzAVmAiQAqw5ivOv/pmeFF7AANAhSrPzk1v30LlfhcHO//BnwAagBJ1zqTp79jP5T3QiHH/TAxV9ATF0AJECKyyFZbg9Ybbfddmm17QUjPG1CXMVRG/XLfxL+0CeOfJoEpSOPoEBQYFkKSCj2Ay4lIOHMu54R6pyRh/YlzeOyyy7zqz243oMhMgANkCBO3Srtfq7K1u//Uf1Vj0HSoSx5efK4POt/uRzrxEn6bE7GrrJzCgEmFlmgpbJnjCFBNFUM8ZSm8pE7SPnGHSaAa9wUjvSDAkGBgSkg4bgccDUlKEGb/4cf2gKW+R/2d3F6eW7R0q666io/gV2H5DI8RxwEJK40I9JD88Dk+eXPef56Xu5/wqnuTc/ExxJGmo+GN9Eqc42S617QnHQFzCMe8QgHLcLkmmSen8rZ5Kf/SnIDuEpqjShLUGDBKSDB2SVwQdK64EfwAUYCJ94BLRY1oLXpBHfNHcllmI6hO1zNNWn+ibiko7xIX3n30/IIiwFU2HiMZoRF88HN/Rjq5J2TMxjek2VOios30ZqIp+FNudCUcom2uHr2zLOffv5ZkCIeqU8MFRbRFFGIoEBQQIJzGOAahHoCFQFG/R1hrzLk6Sm8/BQG0ALUsDwLuARUconf75n/ACUBEeADOOGiVdXzpgzKX+XBJf0coNDMCCebh5315wCuWW/BKH9QYI4oIIE8LuBailQ5QOTPxKm/q5xym8IslddS/ylN5Sk3j6Mw8tO7XPnPq1sicMEkrYxVwsPHBuTYeGsd9W6bJsNvdmhignfiG5BbCZsIXAQFbIi3uA3IAVwhfAN8FpQHAriKwIXiCxHAtaACIrSQ2dFCFqmtAriKx4wiChjAFcAV2k3wQDE8EMBVBC4UX4gArhBaxQitRdIsoq7NGm8AV/GYUUQBA7gCuAK4ggeK4YEAriJwofhCBHCF0CpGaIUW0qyFLBJdAriKx4wiChjAFcAVwBU8UAwPBHAVgQvFFyKAK4RWMUJrkTSLqGuzdhnAVTxmFFHAAK4ArgCu4IFieCCAqwhcKL4QAVwhtIoRWqGFNGshi0SXAK7iMaOIAgZwBXAFcAUPFMMDAVxF4ELxhQjgCqFVjNBaJM0i6tqsXQZwFY8ZRRQwgCuAK4AreKAYHgjgKgIXii9EAFcIrWKEVmghzVrIItElgKt4zCiigAFcAVwBXMEDxfBAAFcRuFB8IQK4QmgVI7QWSbOIujZrlwFcxWNGEQUM4ArgCuAKHiiGBwK4isCF4gsRwBVCqxihFVpIsxaySHQJ4CoeM4ooYABXAFcAV/BAMTwQwFUELhRfiACuEFrFCK1F0iyirs3aZQBX8ZhRRAEDuAK4AriCB4rhgQCuInCh+EIEcIXQKkZohRbSrIUsEl0CuIrHjCIKGMAVwBXAFTxQDA8EcBWBC8UXIoArhFYxQmuRNIuoa7N2GcBVPGYUUcAArgCuAK7ggWJ4IICrCFwovhABXCG0ihFaoYU0ayGLRJcAruIxo4gCBnAFcAVwBQ8UwwMBXEXgQvGFCOAKoVWM0FokzSLq2qxdBnAVjxlFFDCAK4ArgCt4oBgeCOAqAheKL0QAVwitYoRWaCHNWsgi0SWAq3jMKKKAAVwBXAFcwQPF8EAAVxG4UHwhArhCaBUjtBZJs4i6NmuXAVzFY0YRBQzgCuAK4AoeKIYHAriKwIXiCxHAFUKrGKEVWkizFrJIdAngKh4ziihgAFcAVwBX8EAxPBDAVQQuFF+IAK4QWsUIrUXSLKKuzdplAFfxmFFEAQO4ArgCuIIHiuGBAK4icKH4QgRwhdAqRmiFFtKshSwSXQK4iseMIgoYwBXAFcAVPFAMDwRwFYELxRcigCuEVjFCa5E0i6hrs3YZwFU8ZhRRwACuAK4AruCBYngggKsIXCi+EAFcIbSKEVqhhTRrIYtElwCu4jGjiAIGcAVwBXAFDxTDAwFcReBC8YUI4AqhVYzQWiTNIurarF0GcBWPGUUUMIArgCuAK3igGB4I4CoCF4ovRABXCK1ihFZoIc1ayCLRJYCreMwoooABXAFcAVzBA8XwQABXEbhQfCECuEJoFSO0FkmziLo2a5cBXMVjRhEFDOAK4ArgCh4ohgcCuIrAheILEcAVQqsYoRVaSLMWskh0CeAqHjOKKGAAVwBXAFfwQDE8EMBVBC4UX4gArhBaxQitRdIsoq7N2mUAV/GYUUQBA7gCuAK4ggeK4YEAriJwofhCBHCF0CpGaIUW0qyFLBJdAriKx4wiChjAFcAVwBU8UAwPBHAVgQvFFyKAK4RWMUJrkTSLqGuzdhnAVTxmFFHAAK4ArgCu4IFieCCAqwhcKL4QAVwhtIoRWqGFNGshi0SXAK7iMaOIAgZwBXAFcAUPFMMDAVxF4ELxhQjgCqFVjNBaJM0i6tqsXQZwFY8ZRRQwgCuAK4AreKAYHgjgKgIXii9EAFcIrWKEVmghzVrIItElgKt4zCiigAFcAVwBXMEDxfBAAFcRuFB8IQK4QmgVI7QWSbOIujZrlwFcxWNGEQUM4ArgCuAKHiiGBwK4isCF4gsRwBVCqxihFVpIsxaySHQJ4CoeM4ooYABXAFcAV/BAMTwQwFUELhRfiACuEFrFCK1F0iyirs3aZQBX8ZhRRAEBrhtvvLHac889W8uve97znh7nzDPP9Lr87Gc/66RO9yAV69gDm5///OfJCpNOO+209MxnPtOf8QsTFAgKzBYFDLi8wHvvvXc6/vjj04oVK/xd/rNVmyjtuChgYJOuv/76tO+++6ZzzjmnVTZgBfjwjW98Iz3ucY9L8FYX/BXA1aoZInBQYH4oIAESwDU/bTqOmpjGla688sq02267pauvvjq10XXgsQ033DBdccUVabPNNnNFR3w3SlkDuEahXsQNCswwBSRAArhmuBEnUHQ0ri996UsJPrn11lsT723Mpptums4///z04Ac/ON3rXvdqE7V/2LYDjhqj/MhHPuJjlxrDtBxaj39GnKBZ8MD0eMCAq8Lus88+1Xe/+93KhnTctpUJEX5+KSCeOOqoo6p73/veVRt5D2/Rvx/72Mc6fwk7uqAWal8ro8wDuKYncELYB+274IEArlaib+ECA1rIe5vfqmx+qjJtqZVyIuDaZZddKtPUPK2uiBjAFZpiK2bsQmBGGmUAbwBXV2J0/tIBtFhNePvtt1cvetGLHLQERIP2X7Qz4rzsZS/ztEizKxPAFcAVwLWgPBDA1ZUYnb900LSwJ510UvWgBz3IAWhQwFI4+IvhxVNOOaXzYegArgUVWmKucMvQfqbRDgFc8wc4o9YIsLrjjjtcQwJwttxyy6E/bOGvrbfeurrwwgs7B65YVWgSI0xQYBEpYILFq81qseOOO663j2sRaRF1Tr7fyoAv3XLLLenkk09ORx99dLrhhhtQboYiDysI99hjj2TrIZJpXp3s31JBArhEiXCDAgtGAQEXG0uPPfbY9IAHPGDBKBDVhQLwwU9/+tN00003+bL1t7zlLem8885Lt912m4PZMFRi4/F973vf9MY3vjEdfvjhnoT4bZj06nECuOoUifegwIJR4IlPfGJ68YtfnB7ykId0+lW8YGScyerasGCyrRDpkksuSWeddVa64IILXMMCeGwxxdB12mCDDdKaNWvS6aef7h9EXYIWhQrgGrppImJQYH4owLDOfe5znwCu+WnSgWpy5513Jk7GGHY4sF8mG2+8cTrmmGPSQQcd1APCfmGH8Q/gGoZqEScoMEcU4GsYqy/srr+O54hUc1kVtbfaf9RKoq099alPTbYi0bV4jnzq2gRwdU3RSC8oEBQICiwoBQDB+93vfslOg09PfvKT/YgngKxz03b5JMslMXFyxuIuozYmHHqJbMQN2gUPzCcPGGhVpl1VL3/5y6uf/OQnnZ6UUcep0Lg6/xSIBIMCQYGgwGJRQMONnCD//ve/P22++eZOAPl3TY0Arq4pGukFBYICQYEFowD7tHbYYYdkm5bTwx/+8LEv8gngWjAGi+oGBYICQYGuKCCNatttt00nnHBC2nHHHX1eS/5d5VNPJ4CrTpF4DwoEBYICQYGBKbDVVlul973vfb6SEMDq7M6tpUpQn/Ra7j0WZ8znxKrxSCy4CBoEDwQPDMQDtlLQw61du7Y699xzOz+LcDkcYnNYKxPAFQI+QC54IHhgMXnANCpfOcip7wcffHBlZxlOHLQArBgqXEodjf+CAkGBoMCCUyCfr+J0FeazDjnkkHTAAQekTTbZZCJzWndrglbqlgUOjWsxv7SMcQYaQohwQafggfngAbSrvC3tLMvqhS98YXXzzTe7lmUH87aFj87Ch8ZlLRMmKBAUCAosOgVyzcoQxsnBMvdtttkm7brrrunAAw9MO+20U+9cwzz8pGkXwDVpikd+QYECKcCxPNhpCqMCyTL3RbIRtN4ZlXllV65c6UC15557ptWrV6ctttjC/xagTZtPRgKu/fbbb73DOfOKx3NQICgwGxR46EMf6l/VCCMJptkoeZRyVApstNFGadNNN03wwGabbebPgBZAxTt3amEEVGM5d3CISgwNXKeeemraf//9/StNzC53iHJElKBAUGDCFJAw4gOUKyg4HDXMYlEAHpCmrWdOiceyHysHKvFLCRQaGrg+9alP+V0rXELG7ZlhggJBgdmigATRXnvtlY477ri0YsWK2apAlLYTCogPSEzPcjvJYAyJtAYutCoq9eMf/zhdddVVfr3zjTfemC6//PJ06aWXpssuu8yfr7vuusZhB27GJD7pyHZ1D8wY6BNJBgXmlgISTnvvvXc6/vjje8Al/7mteFRs5inQGrhUY4GOgAzw+dGPfuT2tttuc/d73/teuuaaa9LVV1/tIAfQoaHZkfcOfLjY22+/vaeu5ukqbeWJi1+YoEBQYHQKCKACuEanZaQwWQqMBFx5UQEUwCsHHsZI6RysXOF6aLl33HGHg9m3vvWt9M1vfjPhAm4/+MEP0q233pp++MMfugXU+hnGXgVicvuFDf+gQFDg7hQI4Lo7TcJnNigwNHANUj2BGGEFLrj5ZGCeDhrb9ddfn6699tpkR4n4M++24c01NVwsmhxandLM06AzNvnnYeI5KBAUuGs+IzSu4IZZo8BYgWs5YtQBRl+AuT/PaGvMqQFsaGO43//+99O6det8Pg2tTRZtrm60Ooa06rYeNt6DAotCAfW3AK5FafH5qedUgatORgFW7tK51MEIr/94xh9A05wa7i233OKaGqCGZV4NrY1wzKVhNa+mNHBzQONdJs9PfuEGBeaBAupXAVzz0JqLVYeigKsf6ZvAQ3454PBMZ0TDYok+mhou9s477/RhxiuvvDJdccUVPVBjsQhgh9XcGnN1pKM8VC781NmVr/4LNygwaxQQLwdwzVrLRXlnArjaNFMOKPkznTTfTKc0ASnm01gcwhJ+LCshNa8GsMkCbIBhmKDAPFAggGseWnEx6zB3wLVcM9a1KMKrA+dxmStjLo1Vjqx2xDKvxrCjhiDR3rAAW93kQJkDaFP+9bjxHhSYBAXE96FxTYLakUeXFFg44GoinsBELmHUqfPw/I8/w46aW9P8GlqbhiABM5b48x8AKMv8GhqelvKTnmyeD895Wer/xXtQoAsKiMcDuLqgZqQxSQoEcPWhdhNw4EdnF9gAQjLMq7FPDVCTldbGMCRghqbG87e//e3evBpza2h1hJUgIU3lj5/85SdXeYcbFBiGAuKrAK5hqBdxpkmBAK6OqC8wy12S1ibsPBvCAFiAWG45Oos9arIMQTKvBhAKrOTm6cVzUGAYCgRwDUO1iFMCBQK4xtwKSwGNBIeKgAanOTWAjTk1LAtFBHBobiweYa4NQKubfAGK8pZbDxvvi00B8V9oXIvNB7NY+wCuKbZaDig8S5A0FYn/mVeTZf4MQGP4kfk0HZ9100039Zb/A2zaDqDTSkgnt8oLvzCLRQHxWwDXYrX7PNQ2gKuwVswBJH9GyPCOViZ/aVda/CGXRSBoZGy+lgXQWBmJJqczIQE/GaUpV2nzP37yV/hwZ58CAVyz34aLWoMArhluecAkBzItFgF0mFurGwCNIUdWP2K1YIThSAEaoKb9agIruaQnYZf71fOJ99mggNoyNK7ZaK8o5V0UCOC6ixZz85SDSv6MoJKwyiuL5gVgsSgEEGNRCM/ajM2cGgcfYwG4JpOnm+fZFDb8yqCA2iyAq4z2iFIMToEArsFpNRch24IK82TMq+nuNICLeTVdGMoFomhvaHOcKpJbBKOGHKUZKn+5c0HUGa1EANeMNlwUOwVwBROsN3+VAwqCjXdZkQowAtCYUwOwcAE3tLR89SPzbACdhiFxWTXJfjcJTeWHK5Ajn9xf+YbbLQXUBqFxdUvXSG38FAjgGj+N5y6HXHvSM0Jwww03bKwrC0N0YSjaGs/4CdC0aARtrQ6SJCgBy7MAjecwo1FAdA3gGo2OEXvyFAjgmjzN5zZHgUruIhxzTUqVZ5m+5tOYU/vOd77jGhubsHXYMXNqaG2AnBaeKH64o1MggGt0GkYK06FAANd06L5wuQrMBqk4Q4kahmRujWFIFohcfPHF6dJLL/X5NVz2sQFouSV9VlQqP2mE+MuP5zB3abKhcQU3zBoFArhmrcXmpLx1ENG7tAC9y8WfoURdAipAQ2tDM2O/mk4VYQiSJf3Mp+nWbObipPkpTbn98pwTUvethuodwNWXRPFHoRQI4Cq0YaJY61NAmhMuRu4GG2zQuGcNLU02EEdaAAAC4ElEQVQrHjW/xsIRFpAwpwbg4TYdm0X6CHWATuCGq2f+nwcTwDUPrbiYdQjgWsx2n5taC0zqwALoSDCrsoRBG2M+jWFGXE7q55lrabDMr+Hih7Y2z0b0CY1rnlt5PusWwDWf7Rq1yiggcMNLwjr7u/eoI7PQwrAsCrnooot8bo35NZ7Zs8aQZd2g+ZG2ADR362FLeRctArhKaZEox6AUCOAalFIRbi4oIBCTS6UkwHM/ngVEzI9pAzbPaG1oZppXYwgSzY0TSDSnhovVvBr5kKbyUJ51f94nZVSGAK5JUTzy6YoCAVxdUTLSmVkKCEyaKsB/ml8T8ABGaFjyx5VloQhaGfvVcFkNybCj5tZwWTTSz/QDun7hR/EP4BqFehF3mhQI4Jom9SPvmaSAgE5ARiV4Bghy4FHlGILUXBrDj+xV4505Ns2tyQ9tToCodJVO124AV9cUjfQmRYEArklROvKZewoI0JoqKpDQf4RlroyhR1ZAYhmOBLhYBcmKSLnsWWN5f90AklgBqNx6uH7vKlMMFfajUPiXSoEArlJbJso1VxTIQU3PAg69q8L4szhEe9YAN4ALrYy9asytMQzJPBvzaMytaX4NAAQQc0AjXfKo58c7/vvss0867rjj0ooVK7wICqfyhBsUKI0CAVyltUiUZ2EoUAcsVRz/ugVMOBFEc2mcLoIFpNDSmFPDslAEcGNIUtfTMK/GvrV++aFxnXDCCQFcaoBwi6dAAFfxTRQFDAqsvyIxBzUBmmgkcMJf+9TyeTXADM1Nc2pob7vssks65phjArhExHCLp0AAV/FNFAUMCvSngICqX4j6sJ/m1TQMyRDjxhtvnB72sIf1TiCpx+mXdvgHBaZFgQCuaVE+8g0KBAWCAkGBoSgQwDUU2SJSUCAoEBQICkyLAgFc06J85BsUCAoEBYICQ1EggGsoskWkoEBQICgQFJgWBQK4pkX5yDcoEBQICgQFhqLA/wPDoZ4I5smNmwAAAABJRU5ErkJggg==;" parent="1" vertex="1">
          <mxGeometry x="138.69" y="230" width="114.12" height="112" as="geometry" />
        </mxCell>
        <mxCell id="NMNSzK-s-q_iO5RZ9DI--15" value="" style="endArrow=classic;startArrow=classic;html=1;rounded=0;fontSize=15;strokeWidth=1;exitX=0.5;exitY=0;exitDx=0;exitDy=0;entryX=0.5;entryY=1;entryDx=0;entryDy=0;" parent="1" source="NMNSzK-s-q_iO5RZ9DI--14" target="NMNSzK-s-q_iO5RZ9DI--10" edge="1">
          <mxGeometry width="50" height="50" relative="1" as="geometry">
            <mxPoint x="206" y="90" as="sourcePoint" />
            <mxPoint x="206.00000000000023" y="50" as="targetPoint" />
          </mxGeometry>
        </mxCell>
      </root>
    </mxGraphModel>
  </diagram>
  <diagram id="P_G8HkwYVYCjJVbaKcmW" name="Page-2">
    <mxGraphModel dx="1237" dy="864" grid="1" gridSize="10" guides="1" tooltips="1" connect="1" arrows="1" fold="1" page="1" pageScale="1" pageWidth="291" pageHeight="413" math="0" shadow="0">
      <root>
        <mxCell id="0" />
        <mxCell id="1" parent="0" />
        <mxCell id="24eil91jlVCZimo8RtWA-1" value="" style="shape=image;verticalLabelPosition=bottom;labelBackgroundColor=default;verticalAlign=top;aspect=fixed;imageAspect=0;image=https://cdn-images-1.medium.com/max/1200/1*r5KdIfHXaz7UQM4FmZ0D5A.png;imageBackground=none;imageBorder=none;" vertex="1" parent="1">
          <mxGeometry x="139.65" y="-300" width="210" height="210" as="geometry" />
        </mxCell>
        <mxCell id="24eil91jlVCZimo8RtWA-2" value="" style="shape=image;verticalLabelPosition=bottom;labelBackgroundColor=default;verticalAlign=top;aspect=fixed;imageAspect=0;image=https://images.velog.io/images/amuse/post/4ca1bade-cef1-4a4e-bf04-95d8c6bb3111/mysql.png;" vertex="1" parent="1">
          <mxGeometry x="90" y="-50" width="309.31" height="160" as="geometry" />
        </mxCell>
        <mxCell id="24eil91jlVCZimo8RtWA-3" value="" style="shape=image;verticalLabelPosition=bottom;labelBackgroundColor=default;verticalAlign=top;aspect=fixed;imageAspect=0;image=https://images.velog.io/images/banjjoknim/post/82df7d69-1f8d-4325-8d45-29faf2995ceb/redis.png;" vertex="1" parent="1">
          <mxGeometry x="-199.99000000000004" y="-309.5" width="271.29" height="229" as="geometry" />
        </mxCell>
        <mxCell id="24eil91jlVCZimo8RtWA-4" value="" style="shape=image;verticalLabelPosition=bottom;labelBackgroundColor=default;verticalAlign=top;aspect=fixed;imageAspect=0;image=https://perfectacle.github.io/2017/08/02/Spring-boot-study-001day/thumb.png;" vertex="1" parent="1">
          <mxGeometry x="-184.35" y="-81" width="240" height="240" as="geometry" />
        </mxCell>
      </root>
    </mxGraphModel>
  </diagram>
</mxfile>
